<mxfile host="Electron" agent="Mozilla/5.0 (Windows NT 10.0; Win64; x64) AppleWebKit/537.36 (KHTML, like Gecko) draw.io/24.7.17 Chrome/128.0.6613.36 Electron/32.0.1 Safari/537.36" version="24.7.17">
  <diagram name="Page-1" id="9YLO6V_DOgZ76NLpCNiV">
    <mxGraphModel dx="5856" dy="2810" grid="1" gridSize="10" guides="1" tooltips="1" connect="1" arrows="1" fold="1" page="1" pageScale="1" pageWidth="850" pageHeight="1100" math="0" shadow="0">
      <root>
        <mxCell id="0" />
        <mxCell id="1" parent="0" />
        <mxCell id="xa8UJsieOF3sWng5uSHY-1" value="Store" style="rounded=1;arcSize=10;whiteSpace=wrap;html=1;align=center;" parent="1" vertex="1">
          <mxGeometry x="682.71" y="150" width="100" height="40" as="geometry" />
        </mxCell>
        <mxCell id="xa8UJsieOF3sWng5uSHY-2" value="Course" style="rounded=1;arcSize=10;whiteSpace=wrap;html=1;align=center;" parent="1" vertex="1">
          <mxGeometry x="290" y="150" width="100" height="40" as="geometry" />
        </mxCell>
        <mxCell id="xa8UJsieOF3sWng5uSHY-3" value="Ù‘Festival" style="rounded=1;arcSize=10;whiteSpace=wrap;html=1;align=center;" parent="1" vertex="1">
          <mxGeometry x="942.71" y="240" width="100" height="40" as="geometry" />
        </mxCell>
        <mxCell id="xa8UJsieOF3sWng5uSHY-4" value="BelongTo" style="shape=rhombus;perimeter=rhombusPerimeter;whiteSpace=wrap;html=1;align=center;" parent="1" vertex="1">
          <mxGeometry x="430" y="140" width="120" height="60" as="geometry" />
        </mxCell>
        <mxCell id="xa8UJsieOF3sWng5uSHY-7" value="Sponsored" style="shape=rhombus;perimeter=rhombusPerimeter;whiteSpace=wrap;html=1;align=center;" parent="1" vertex="1">
          <mxGeometry x="807.71" y="230" width="90" height="60" as="geometry" />
        </mxCell>
        <mxCell id="xa8UJsieOF3sWng5uSHY-28" value="" style="endArrow=none;html=1;rounded=0;" parent="1" source="xa8UJsieOF3sWng5uSHY-7" target="xa8UJsieOF3sWng5uSHY-1" edge="1">
          <mxGeometry relative="1" as="geometry">
            <mxPoint x="1012.708947368421" y="279.9994736842105" as="sourcePoint" />
            <mxPoint x="1136.6855555555558" y="224.21" as="targetPoint" />
            <Array as="points">
              <mxPoint x="732.71" y="260" />
            </Array>
          </mxGeometry>
        </mxCell>
        <mxCell id="xa8UJsieOF3sWng5uSHY-29" value="1" style="resizable=0;html=1;whiteSpace=wrap;align=right;verticalAlign=bottom;" parent="xa8UJsieOF3sWng5uSHY-28" connectable="0" vertex="1">
          <mxGeometry x="1" relative="1" as="geometry">
            <mxPoint x="75" y="70" as="offset" />
          </mxGeometry>
        </mxCell>
        <mxCell id="t1DKoS5wMnab59zYMPA--1" value="User" style="rounded=1;arcSize=10;whiteSpace=wrap;html=1;align=center;" parent="1" vertex="1">
          <mxGeometry x="290" y="591" width="100" height="40" as="geometry" />
        </mxCell>
        <mxCell id="t1DKoS5wMnab59zYMPA--5" value="Liked" style="shape=associativeEntity;whiteSpace=wrap;html=1;align=center;" parent="1" vertex="1">
          <mxGeometry x="-92.5" y="360" width="65" height="60" as="geometry" />
        </mxCell>
        <mxCell id="t1DKoS5wMnab59zYMPA--9" value="TeachTo" style="shape=associativeEntity;whiteSpace=wrap;html=1;align=center;" parent="1" vertex="1">
          <mxGeometry x="-310" y="360" width="70" height="60" as="geometry" />
        </mxCell>
        <mxCell id="t1DKoS5wMnab59zYMPA--17" value="Blog" style="rounded=1;arcSize=10;whiteSpace=wrap;html=1;align=center;" parent="1" vertex="1">
          <mxGeometry x="682.71" y="-210" width="100" height="40" as="geometry" />
        </mxCell>
        <mxCell id="t1DKoS5wMnab59zYMPA--18" value="BelongTo" style="shape=rhombus;perimeter=rhombusPerimeter;whiteSpace=wrap;html=1;align=center;" parent="1" vertex="1">
          <mxGeometry x="697.71" y="60" width="70" height="60" as="geometry" />
        </mxCell>
        <mxCell id="t1DKoS5wMnab59zYMPA--23" value="" style="endArrow=none;html=1;rounded=0;" parent="1" source="t1DKoS5wMnab59zYMPA--18" target="xa8UJsieOF3sWng5uSHY-1" edge="1">
          <mxGeometry relative="1" as="geometry">
            <mxPoint x="722.71" y="140" as="sourcePoint" />
            <mxPoint x="882.71" y="140" as="targetPoint" />
          </mxGeometry>
        </mxCell>
        <mxCell id="t1DKoS5wMnab59zYMPA--24" value="1" style="resizable=0;html=1;whiteSpace=wrap;align=right;verticalAlign=bottom;" parent="t1DKoS5wMnab59zYMPA--23" connectable="0" vertex="1">
          <mxGeometry x="1" relative="1" as="geometry">
            <mxPoint x="13" y="-15" as="offset" />
          </mxGeometry>
        </mxCell>
        <mxCell id="t1DKoS5wMnab59zYMPA--25" value="Coupon" style="rounded=1;arcSize=10;whiteSpace=wrap;html=1;align=center;" parent="1" vertex="1">
          <mxGeometry x="952.71" y="150" width="100" height="40" as="geometry" />
        </mxCell>
        <mxCell id="t1DKoS5wMnab59zYMPA--27" value="Create" style="shape=rhombus;perimeter=rhombusPerimeter;whiteSpace=wrap;html=1;align=center;" parent="1" vertex="1">
          <mxGeometry x="817.71" y="140" width="70" height="60" as="geometry" />
        </mxCell>
        <mxCell id="t1DKoS5wMnab59zYMPA--28" value="" style="endArrow=none;html=1;rounded=0;" parent="1" source="t1DKoS5wMnab59zYMPA--27" target="xa8UJsieOF3sWng5uSHY-1" edge="1">
          <mxGeometry relative="1" as="geometry">
            <mxPoint x="592.71" y="110" as="sourcePoint" />
            <mxPoint x="752.71" y="110" as="targetPoint" />
          </mxGeometry>
        </mxCell>
        <mxCell id="t1DKoS5wMnab59zYMPA--29" value="1" style="resizable=0;html=1;whiteSpace=wrap;align=right;verticalAlign=bottom;" parent="t1DKoS5wMnab59zYMPA--28" connectable="0" vertex="1">
          <mxGeometry x="1" relative="1" as="geometry">
            <mxPoint x="37" as="offset" />
          </mxGeometry>
        </mxCell>
        <mxCell id="t1DKoS5wMnab59zYMPA--41" value="" style="shape=link;html=1;rounded=0;" parent="1" source="xa8UJsieOF3sWng5uSHY-7" target="xa8UJsieOF3sWng5uSHY-3" edge="1">
          <mxGeometry relative="1" as="geometry">
            <mxPoint x="732.71" y="320" as="sourcePoint" />
            <mxPoint x="892.71" y="320" as="targetPoint" />
          </mxGeometry>
        </mxCell>
        <mxCell id="t1DKoS5wMnab59zYMPA--42" value="1" style="resizable=0;html=1;whiteSpace=wrap;align=right;verticalAlign=bottom;" parent="t1DKoS5wMnab59zYMPA--41" connectable="0" vertex="1">
          <mxGeometry x="1" relative="1" as="geometry">
            <mxPoint x="-40" as="offset" />
          </mxGeometry>
        </mxCell>
        <mxCell id="t1DKoS5wMnab59zYMPA--49" value="Tag" style="rounded=1;arcSize=10;whiteSpace=wrap;html=1;align=center;" parent="1" vertex="1">
          <mxGeometry x="70" y="-110" width="100" height="40" as="geometry" />
        </mxCell>
        <mxCell id="t1DKoS5wMnab59zYMPA--50" value="BeTagTo" style="shape=associativeEntity;whiteSpace=wrap;html=1;align=center;" parent="1" vertex="1">
          <mxGeometry x="75" y="-30" width="90" height="60" as="geometry" />
        </mxCell>
        <mxCell id="t1DKoS5wMnab59zYMPA--55" value="Tagged" style="shape=associativeEntity;whiteSpace=wrap;html=1;align=center;" parent="1" vertex="1">
          <mxGeometry x="85" y="-220" width="70" height="60" as="geometry" />
        </mxCell>
        <mxCell id="t1DKoS5wMnab59zYMPA--60" value="Banner" style="rounded=1;arcSize=10;whiteSpace=wrap;html=1;align=center;" parent="1" vertex="1">
          <mxGeometry x="942.71" y="400" width="100" height="40" as="geometry" />
        </mxCell>
        <mxCell id="t1DKoS5wMnab59zYMPA--61" value="Hang" style="shape=rhombus;perimeter=rhombusPerimeter;whiteSpace=wrap;html=1;align=center;" parent="1" vertex="1">
          <mxGeometry x="807.71" y="390" width="80" height="60" as="geometry" />
        </mxCell>
        <mxCell id="t1DKoS5wMnab59zYMPA--62" value="" style="endArrow=none;html=1;rounded=0;" parent="1" source="xa8UJsieOF3sWng5uSHY-1" target="t1DKoS5wMnab59zYMPA--61" edge="1">
          <mxGeometry relative="1" as="geometry">
            <mxPoint x="652.71" y="360" as="sourcePoint" />
            <mxPoint x="812.71" y="360" as="targetPoint" />
            <Array as="points">
              <mxPoint x="732.71" y="420" />
            </Array>
          </mxGeometry>
        </mxCell>
        <mxCell id="t1DKoS5wMnab59zYMPA--63" value="1" style="resizable=0;html=1;whiteSpace=wrap;align=right;verticalAlign=bottom;" parent="t1DKoS5wMnab59zYMPA--62" connectable="0" vertex="1">
          <mxGeometry x="1" relative="1" as="geometry" />
        </mxCell>
        <mxCell id="t1DKoS5wMnab59zYMPA--64" value="" style="endArrow=none;html=1;rounded=0;" parent="1" source="t1DKoS5wMnab59zYMPA--61" target="t1DKoS5wMnab59zYMPA--60" edge="1">
          <mxGeometry relative="1" as="geometry">
            <mxPoint x="722.71" y="460" as="sourcePoint" />
            <mxPoint x="882.71" y="460" as="targetPoint" />
          </mxGeometry>
        </mxCell>
        <mxCell id="t1DKoS5wMnab59zYMPA--65" value="N" style="resizable=0;html=1;whiteSpace=wrap;align=right;verticalAlign=bottom;" parent="t1DKoS5wMnab59zYMPA--64" connectable="0" vertex="1">
          <mxGeometry x="1" relative="1" as="geometry">
            <mxPoint x="-44" as="offset" />
          </mxGeometry>
        </mxCell>
        <mxCell id="t1DKoS5wMnab59zYMPA--66" value="" style="shape=link;html=1;rounded=0;" parent="1" source="t1DKoS5wMnab59zYMPA--68" target="xa8UJsieOF3sWng5uSHY-3" edge="1">
          <mxGeometry relative="1" as="geometry">
            <mxPoint x="992.71" y="320" as="sourcePoint" />
            <mxPoint x="1092.71" y="330" as="targetPoint" />
          </mxGeometry>
        </mxCell>
        <mxCell id="t1DKoS5wMnab59zYMPA--67" value="1" style="resizable=0;html=1;whiteSpace=wrap;align=right;verticalAlign=bottom;" parent="t1DKoS5wMnab59zYMPA--66" connectable="0" vertex="1">
          <mxGeometry x="1" relative="1" as="geometry">
            <mxPoint x="-4" y="31" as="offset" />
          </mxGeometry>
        </mxCell>
        <mxCell id="t1DKoS5wMnab59zYMPA--69" value="" style="shape=link;html=1;rounded=0;" parent="1" target="t1DKoS5wMnab59zYMPA--68" edge="1">
          <mxGeometry relative="1" as="geometry">
            <mxPoint x="992.71" y="320" as="sourcePoint" />
            <mxPoint x="992.71" y="280" as="targetPoint" />
          </mxGeometry>
        </mxCell>
        <mxCell id="t1DKoS5wMnab59zYMPA--68" value="Create" style="shape=rhombus;perimeter=rhombusPerimeter;whiteSpace=wrap;html=1;align=center;" parent="1" vertex="1">
          <mxGeometry x="952.71" y="310" width="80" height="60" as="geometry" />
        </mxCell>
        <mxCell id="t1DKoS5wMnab59zYMPA--71" value="" style="endArrow=none;html=1;rounded=0;" parent="1" source="t1DKoS5wMnab59zYMPA--68" target="t1DKoS5wMnab59zYMPA--60" edge="1">
          <mxGeometry relative="1" as="geometry">
            <mxPoint x="1022.71" y="380" as="sourcePoint" />
            <mxPoint x="1182.71" y="380" as="targetPoint" />
          </mxGeometry>
        </mxCell>
        <mxCell id="t1DKoS5wMnab59zYMPA--72" value="1" style="resizable=0;html=1;whiteSpace=wrap;align=right;verticalAlign=bottom;" parent="t1DKoS5wMnab59zYMPA--71" connectable="0" vertex="1">
          <mxGeometry x="1" relative="1" as="geometry">
            <mxPoint x="-2" y="-14" as="offset" />
          </mxGeometry>
        </mxCell>
        <mxCell id="t1DKoS5wMnab59zYMPA--73" value="Ticket" style="rounded=1;arcSize=10;whiteSpace=wrap;html=1;align=center;" parent="1" vertex="1">
          <mxGeometry x="70" y="870" width="100" height="40" as="geometry" />
        </mxCell>
        <mxCell id="t1DKoS5wMnab59zYMPA--74" value="Create" style="shape=rhombus;perimeter=rhombusPerimeter;whiteSpace=wrap;html=1;align=center;" parent="1" vertex="1">
          <mxGeometry x="80" y="740" width="80" height="60" as="geometry" />
        </mxCell>
        <mxCell id="t1DKoS5wMnab59zYMPA--75" value="" style="endArrow=none;html=1;rounded=0;" parent="1" source="t1DKoS5wMnab59zYMPA--74" target="t1DKoS5wMnab59zYMPA--73" edge="1">
          <mxGeometry relative="1" as="geometry">
            <mxPoint x="360" y="790" as="sourcePoint" />
            <mxPoint x="520" y="790" as="targetPoint" />
          </mxGeometry>
        </mxCell>
        <mxCell id="t1DKoS5wMnab59zYMPA--76" value="N" style="resizable=0;html=1;whiteSpace=wrap;align=right;verticalAlign=bottom;" parent="t1DKoS5wMnab59zYMPA--75" connectable="0" vertex="1">
          <mxGeometry x="1" relative="1" as="geometry">
            <mxPoint y="-50" as="offset" />
          </mxGeometry>
        </mxCell>
        <mxCell id="t1DKoS5wMnab59zYMPA--79" value="Notification" style="rounded=1;arcSize=10;whiteSpace=wrap;html=1;align=center;" parent="1" vertex="1">
          <mxGeometry x="612.71" y="590" width="100" height="40" as="geometry" />
        </mxCell>
        <mxCell id="t1DKoS5wMnab59zYMPA--92" value="" style="endArrow=none;html=1;rounded=0;" parent="1" source="xa8UJsieOF3sWng5uSHY-2" target="xa8UJsieOF3sWng5uSHY-4" edge="1">
          <mxGeometry relative="1" as="geometry">
            <mxPoint x="430" y="120" as="sourcePoint" />
            <mxPoint x="590" y="120" as="targetPoint" />
          </mxGeometry>
        </mxCell>
        <mxCell id="t1DKoS5wMnab59zYMPA--93" value="N" style="resizable=0;html=1;whiteSpace=wrap;align=right;verticalAlign=bottom;" parent="t1DKoS5wMnab59zYMPA--92" connectable="0" vertex="1">
          <mxGeometry x="1" relative="1" as="geometry">
            <mxPoint x="-1" y="-1" as="offset" />
          </mxGeometry>
        </mxCell>
        <mxCell id="t1DKoS5wMnab59zYMPA--94" value="" style="endArrow=none;html=1;rounded=0;" parent="1" source="xa8UJsieOF3sWng5uSHY-4" target="xa8UJsieOF3sWng5uSHY-1" edge="1">
          <mxGeometry relative="1" as="geometry">
            <mxPoint x="550" y="200" as="sourcePoint" />
            <mxPoint x="710" y="200" as="targetPoint" />
          </mxGeometry>
        </mxCell>
        <mxCell id="t1DKoS5wMnab59zYMPA--95" value="1" style="resizable=0;html=1;whiteSpace=wrap;align=right;verticalAlign=bottom;" parent="t1DKoS5wMnab59zYMPA--94" connectable="0" vertex="1">
          <mxGeometry x="1" relative="1" as="geometry">
            <mxPoint x="-123" as="offset" />
          </mxGeometry>
        </mxCell>
        <mxCell id="t1DKoS5wMnab59zYMPA--97" value="SubscribeBy" style="shape=associativeEntity;whiteSpace=wrap;html=1;align=center;" parent="1" vertex="1">
          <mxGeometry x="-220" y="360" width="110" height="60" as="geometry" />
        </mxCell>
        <mxCell id="t1DKoS5wMnab59zYMPA--122" value="" style="endArrow=none;html=1;rounded=0;" parent="1" source="xa8UJsieOF3sWng5uSHY-2" target="t1DKoS5wMnab59zYMPA--125" edge="1">
          <mxGeometry relative="1" as="geometry">
            <mxPoint x="470" y="290" as="sourcePoint" />
            <mxPoint x="618.0835654596099" y="334.95821727019484" as="targetPoint" />
            <Array as="points">
              <mxPoint x="340" y="260" />
            </Array>
          </mxGeometry>
        </mxCell>
        <mxCell id="t1DKoS5wMnab59zYMPA--125" value="U" style="ellipse;whiteSpace=wrap;html=1;aspect=fixed;" parent="1" vertex="1">
          <mxGeometry x="642.71" y="241" width="40" height="40" as="geometry" />
        </mxCell>
        <mxCell id="t1DKoS5wMnab59zYMPA--127" value="" style="endArrow=none;html=1;rounded=0;" parent="1" source="t1DKoS5wMnab59zYMPA--126" target="t1DKoS5wMnab59zYMPA--79" edge="1">
          <mxGeometry relative="1" as="geometry">
            <mxPoint x="650" y="380" as="sourcePoint" />
            <mxPoint x="810" y="380" as="targetPoint" />
          </mxGeometry>
        </mxCell>
        <mxCell id="t1DKoS5wMnab59zYMPA--128" value="" style="endArrow=none;html=1;rounded=0;" parent="1" source="t1DKoS5wMnab59zYMPA--125" target="t1DKoS5wMnab59zYMPA--126" edge="1">
          <mxGeometry relative="1" as="geometry">
            <mxPoint x="630" y="330" as="sourcePoint" />
            <mxPoint x="630" y="480" as="targetPoint" />
          </mxGeometry>
        </mxCell>
        <mxCell id="t1DKoS5wMnab59zYMPA--126" value="" style="shape=requiredInterface;html=1;verticalLabelPosition=bottom;sketch=0;rotation=90;" parent="1" vertex="1">
          <mxGeometry x="657.71" y="318" width="10" height="20" as="geometry" />
        </mxCell>
        <mxCell id="t1DKoS5wMnab59zYMPA--129" value="" style="endArrow=none;html=1;rounded=0;" parent="1" source="xa8UJsieOF3sWng5uSHY-1" target="t1DKoS5wMnab59zYMPA--125" edge="1">
          <mxGeometry relative="1" as="geometry">
            <mxPoint x="780" y="510" as="sourcePoint" />
            <mxPoint x="940" y="510" as="targetPoint" />
            <Array as="points">
              <mxPoint x="733" y="260" />
            </Array>
          </mxGeometry>
        </mxCell>
        <mxCell id="t1DKoS5wMnab59zYMPA--130" value="Receive" style="shape=associativeEntity;whiteSpace=wrap;html=1;align=center;" parent="1" vertex="1">
          <mxGeometry x="460" y="580" width="80" height="60" as="geometry" />
        </mxCell>
        <mxCell id="t1DKoS5wMnab59zYMPA--133" value="" style="endArrow=none;html=1;rounded=0;" parent="1" source="t1DKoS5wMnab59zYMPA--79" target="t1DKoS5wMnab59zYMPA--130" edge="1">
          <mxGeometry relative="1" as="geometry">
            <mxPoint x="500" y="760" as="sourcePoint" />
            <mxPoint x="660" y="760" as="targetPoint" />
          </mxGeometry>
        </mxCell>
        <mxCell id="t1DKoS5wMnab59zYMPA--134" value="N" style="resizable=0;html=1;whiteSpace=wrap;align=right;verticalAlign=bottom;" parent="t1DKoS5wMnab59zYMPA--133" connectable="0" vertex="1">
          <mxGeometry x="1" relative="1" as="geometry">
            <mxPoint x="13" as="offset" />
          </mxGeometry>
        </mxCell>
        <mxCell id="t1DKoS5wMnab59zYMPA--143" value="ContactUs" style="rounded=1;arcSize=10;whiteSpace=wrap;html=1;align=center;" parent="1" vertex="1">
          <mxGeometry x="942.71" y="500" width="100" height="40" as="geometry" />
        </mxCell>
        <mxCell id="t1DKoS5wMnab59zYMPA--144" value="Way" style="shape=rhombus;perimeter=rhombusPerimeter;whiteSpace=wrap;html=1;align=center;" parent="1" vertex="1">
          <mxGeometry x="812.71" y="490" width="70" height="60" as="geometry" />
        </mxCell>
        <mxCell id="t1DKoS5wMnab59zYMPA--145" value="" style="endArrow=none;html=1;rounded=0;" parent="1" source="xa8UJsieOF3sWng5uSHY-1" target="t1DKoS5wMnab59zYMPA--144" edge="1">
          <mxGeometry relative="1" as="geometry">
            <mxPoint x="700" y="570" as="sourcePoint" />
            <mxPoint x="860" y="570" as="targetPoint" />
            <Array as="points">
              <mxPoint x="733" y="520" />
            </Array>
          </mxGeometry>
        </mxCell>
        <mxCell id="t1DKoS5wMnab59zYMPA--146" value="1" style="resizable=0;html=1;whiteSpace=wrap;align=right;verticalAlign=bottom;" parent="t1DKoS5wMnab59zYMPA--145" connectable="0" vertex="1">
          <mxGeometry x="1" relative="1" as="geometry" />
        </mxCell>
        <mxCell id="t1DKoS5wMnab59zYMPA--147" value="" style="endArrow=none;html=1;rounded=0;" parent="1" source="t1DKoS5wMnab59zYMPA--143" target="t1DKoS5wMnab59zYMPA--144" edge="1">
          <mxGeometry relative="1" as="geometry">
            <mxPoint x="900" y="590" as="sourcePoint" />
            <mxPoint x="1060" y="590" as="targetPoint" />
          </mxGeometry>
        </mxCell>
        <mxCell id="t1DKoS5wMnab59zYMPA--148" value="N" style="resizable=0;html=1;whiteSpace=wrap;align=right;verticalAlign=bottom;" parent="t1DKoS5wMnab59zYMPA--147" connectable="0" vertex="1">
          <mxGeometry x="1" relative="1" as="geometry">
            <mxPoint x="11" as="offset" />
          </mxGeometry>
        </mxCell>
        <mxCell id="t1DKoS5wMnab59zYMPA--149" value="Info" style="rounded=1;arcSize=10;whiteSpace=wrap;html=1;align=center;" parent="1" vertex="1">
          <mxGeometry x="942.71" y="590" width="100" height="40" as="geometry" />
        </mxCell>
        <mxCell id="t1DKoS5wMnab59zYMPA--150" value="Present" style="shape=rhombus;perimeter=rhombusPerimeter;whiteSpace=wrap;html=1;align=center;" parent="1" vertex="1">
          <mxGeometry x="812.71" y="580" width="70" height="60" as="geometry" />
        </mxCell>
        <mxCell id="t1DKoS5wMnab59zYMPA--152" value="" style="endArrow=none;html=1;rounded=0;" parent="1" source="xa8UJsieOF3sWng5uSHY-1" target="t1DKoS5wMnab59zYMPA--150" edge="1">
          <mxGeometry relative="1" as="geometry">
            <mxPoint x="743" y="200" as="sourcePoint" />
            <mxPoint x="823" y="530" as="targetPoint" />
            <Array as="points">
              <mxPoint x="733" y="610" />
            </Array>
          </mxGeometry>
        </mxCell>
        <mxCell id="t1DKoS5wMnab59zYMPA--153" value="1" style="resizable=0;html=1;whiteSpace=wrap;align=right;verticalAlign=bottom;" parent="t1DKoS5wMnab59zYMPA--152" connectable="0" vertex="1">
          <mxGeometry x="1" relative="1" as="geometry" />
        </mxCell>
        <mxCell id="t1DKoS5wMnab59zYMPA--154" value="" style="endArrow=none;html=1;rounded=0;" parent="1" source="t1DKoS5wMnab59zYMPA--149" target="t1DKoS5wMnab59zYMPA--150" edge="1">
          <mxGeometry relative="1" as="geometry">
            <mxPoint x="953" y="530" as="sourcePoint" />
            <mxPoint x="893" y="530" as="targetPoint" />
          </mxGeometry>
        </mxCell>
        <mxCell id="t1DKoS5wMnab59zYMPA--155" value="N" style="resizable=0;html=1;whiteSpace=wrap;align=right;verticalAlign=bottom;" parent="t1DKoS5wMnab59zYMPA--154" connectable="0" vertex="1">
          <mxGeometry x="1" relative="1" as="geometry">
            <mxPoint x="11" as="offset" />
          </mxGeometry>
        </mxCell>
        <mxCell id="t1DKoS5wMnab59zYMPA--156" value="" style="endArrow=none;html=1;rounded=0;" parent="1" source="t1DKoS5wMnab59zYMPA--25" target="t1DKoS5wMnab59zYMPA--27" edge="1">
          <mxGeometry relative="1" as="geometry">
            <mxPoint x="860" y="60" as="sourcePoint" />
            <mxPoint x="1020" y="60" as="targetPoint" />
          </mxGeometry>
        </mxCell>
        <mxCell id="t1DKoS5wMnab59zYMPA--157" value="N" style="resizable=0;html=1;whiteSpace=wrap;align=right;verticalAlign=bottom;" parent="t1DKoS5wMnab59zYMPA--156" connectable="0" vertex="1">
          <mxGeometry x="1" relative="1" as="geometry">
            <mxPoint x="3" y="-7" as="offset" />
          </mxGeometry>
        </mxCell>
        <mxCell id="t1DKoS5wMnab59zYMPA--158" value="ApplyTo" style="shape=associativeEntity;whiteSpace=wrap;html=1;align=center;" parent="1" vertex="1">
          <mxGeometry x="305" y="-30" width="70" height="60" as="geometry" />
        </mxCell>
        <mxCell id="t1DKoS5wMnab59zYMPA--161" value="" style="endArrow=none;html=1;rounded=0;" parent="1" source="xa8UJsieOF3sWng5uSHY-2" target="t1DKoS5wMnab59zYMPA--158" edge="1">
          <mxGeometry relative="1" as="geometry">
            <mxPoint x="200" y="100" as="sourcePoint" />
            <mxPoint x="360" y="100" as="targetPoint" />
          </mxGeometry>
        </mxCell>
        <mxCell id="t1DKoS5wMnab59zYMPA--162" value="N" style="resizable=0;html=1;whiteSpace=wrap;align=right;verticalAlign=bottom;" parent="t1DKoS5wMnab59zYMPA--161" connectable="0" vertex="1">
          <mxGeometry x="1" relative="1" as="geometry">
            <mxPoint x="15" y="20" as="offset" />
          </mxGeometry>
        </mxCell>
        <mxCell id="t1DKoS5wMnab59zYMPA--163" value="ApplyTo" style="shape=associativeEntity;whiteSpace=wrap;html=1;align=center;" parent="1" vertex="1">
          <mxGeometry x="193" y="740" width="80" height="60" as="geometry" />
        </mxCell>
        <mxCell id="t1DKoS5wMnab59zYMPA--168" value="FriendDiscount" style="rounded=1;arcSize=10;whiteSpace=wrap;html=1;align=center;rotation=0;" parent="1" vertex="1">
          <mxGeometry x="-1470" y="371" width="100" height="40" as="geometry" />
        </mxCell>
        <mxCell id="t1DKoS5wMnab59zYMPA--186" value="ApplyTo" style="shape=rhombus;perimeter=rhombusPerimeter;whiteSpace=wrap;html=1;align=center;" parent="1" vertex="1">
          <mxGeometry x="193" y="-30" width="77" height="60" as="geometry" />
        </mxCell>
        <mxCell id="t1DKoS5wMnab59zYMPA--187" value="" style="endArrow=none;html=1;rounded=0;" parent="1" target="t1DKoS5wMnab59zYMPA--186" edge="1">
          <mxGeometry relative="1" as="geometry">
            <mxPoint x="291" y="170" as="sourcePoint" />
            <mxPoint x="231.9456" y="220.43200000000002" as="targetPoint" />
            <Array as="points">
              <mxPoint x="232" y="170" />
            </Array>
          </mxGeometry>
        </mxCell>
        <mxCell id="t1DKoS5wMnab59zYMPA--188" value="1" style="resizable=0;html=1;whiteSpace=wrap;align=right;verticalAlign=bottom;" parent="t1DKoS5wMnab59zYMPA--187" connectable="0" vertex="1">
          <mxGeometry x="1" relative="1" as="geometry">
            <mxPoint y="16" as="offset" />
          </mxGeometry>
        </mxCell>
        <mxCell id="t1DKoS5wMnab59zYMPA--189" value="Discount" style="rounded=1;arcSize=10;whiteSpace=wrap;html=1;align=center;" parent="1" vertex="1">
          <mxGeometry x="180" y="-110" width="100" height="40" as="geometry" />
        </mxCell>
        <mxCell id="t1DKoS5wMnab59zYMPA--190" value="" style="shape=link;html=1;rounded=0;" parent="1" source="t1DKoS5wMnab59zYMPA--189" target="t1DKoS5wMnab59zYMPA--186" edge="1">
          <mxGeometry relative="1" as="geometry">
            <mxPoint x="130" y="260" as="sourcePoint" />
            <mxPoint x="290" y="260" as="targetPoint" />
          </mxGeometry>
        </mxCell>
        <mxCell id="t1DKoS5wMnab59zYMPA--191" value="1" style="resizable=0;html=1;whiteSpace=wrap;align=right;verticalAlign=bottom;" parent="t1DKoS5wMnab59zYMPA--190" connectable="0" vertex="1">
          <mxGeometry x="1" relative="1" as="geometry">
            <mxPoint x="-4" y="3" as="offset" />
          </mxGeometry>
        </mxCell>
        <mxCell id="t1DKoS5wMnab59zYMPA--192" value="" style="endArrow=none;html=1;rounded=0;" parent="1" source="t1DKoS5wMnab59zYMPA--25" target="t1DKoS5wMnab59zYMPA--158" edge="1">
          <mxGeometry relative="1" as="geometry">
            <mxPoint x="960" as="sourcePoint" />
            <mxPoint x="610" y="10" as="targetPoint" />
            <Array as="points">
              <mxPoint x="1003" />
            </Array>
          </mxGeometry>
        </mxCell>
        <mxCell id="t1DKoS5wMnab59zYMPA--193" value="M" style="resizable=0;html=1;whiteSpace=wrap;align=right;verticalAlign=bottom;" parent="t1DKoS5wMnab59zYMPA--192" connectable="0" vertex="1">
          <mxGeometry x="1" relative="1" as="geometry">
            <mxPoint x="15" as="offset" />
          </mxGeometry>
        </mxCell>
        <mxCell id="t1DKoS5wMnab59zYMPA--198" value="CourseProposal" style="rounded=1;arcSize=10;whiteSpace=wrap;html=1;align=center;" parent="1" vertex="1">
          <mxGeometry x="-140" y="870" width="100" height="40" as="geometry" />
        </mxCell>
        <mxCell id="t1DKoS5wMnab59zYMPA--199" value="Suggest" style="shape=rhombus;perimeter=rhombusPerimeter;whiteSpace=wrap;html=1;align=center;" parent="1" vertex="1">
          <mxGeometry x="-130" y="740" width="80" height="60" as="geometry" />
        </mxCell>
        <mxCell id="t1DKoS5wMnab59zYMPA--200" value="" style="endArrow=none;html=1;rounded=0;" parent="1" source="t1DKoS5wMnab59zYMPA--198" target="t1DKoS5wMnab59zYMPA--199" edge="1">
          <mxGeometry relative="1" as="geometry">
            <mxPoint x="-280" y="810" as="sourcePoint" />
            <mxPoint x="-120" y="810" as="targetPoint" />
          </mxGeometry>
        </mxCell>
        <mxCell id="t1DKoS5wMnab59zYMPA--201" value="N" style="resizable=0;html=1;whiteSpace=wrap;align=right;verticalAlign=bottom;" parent="t1DKoS5wMnab59zYMPA--200" connectable="0" vertex="1">
          <mxGeometry x="1" relative="1" as="geometry">
            <mxPoint y="20" as="offset" />
          </mxGeometry>
        </mxCell>
        <mxCell id="t1DKoS5wMnab59zYMPA--202" value="" style="endArrow=none;html=1;rounded=0;" parent="1" source="t1DKoS5wMnab59zYMPA--1" target="t1DKoS5wMnab59zYMPA--199" edge="1">
          <mxGeometry relative="1" as="geometry">
            <mxPoint x="-60" y="710" as="sourcePoint" />
            <mxPoint x="100" y="710" as="targetPoint" />
            <Array as="points">
              <mxPoint y="610" />
              <mxPoint x="-90" y="610" />
            </Array>
          </mxGeometry>
        </mxCell>
        <mxCell id="t1DKoS5wMnab59zYMPA--203" value="1" style="resizable=0;html=1;whiteSpace=wrap;align=right;verticalAlign=bottom;" parent="t1DKoS5wMnab59zYMPA--202" connectable="0" vertex="1">
          <mxGeometry x="1" relative="1" as="geometry" />
        </mxCell>
        <mxCell id="t1DKoS5wMnab59zYMPA--204" value="BeTeach" style="shape=rhombus;perimeter=rhombusPerimeter;whiteSpace=wrap;html=1;align=center;" parent="1" vertex="1">
          <mxGeometry x="-410" y="360" width="90" height="60" as="geometry" />
        </mxCell>
        <mxCell id="t1DKoS5wMnab59zYMPA--205" value="" style="endArrow=none;html=1;rounded=0;" parent="1" source="t1DKoS5wMnab59zYMPA--1" target="t1DKoS5wMnab59zYMPA--204" edge="1">
          <mxGeometry relative="1" as="geometry">
            <mxPoint x="-480" y="350" as="sourcePoint" />
            <mxPoint x="-320" y="350" as="targetPoint" />
            <Array as="points">
              <mxPoint x="-365" y="610" />
            </Array>
          </mxGeometry>
        </mxCell>
        <mxCell id="t1DKoS5wMnab59zYMPA--206" value="1" style="resizable=0;html=1;whiteSpace=wrap;align=right;verticalAlign=bottom;" parent="t1DKoS5wMnab59zYMPA--205" connectable="0" vertex="1">
          <mxGeometry x="1" relative="1" as="geometry">
            <mxPoint y="19" as="offset" />
          </mxGeometry>
        </mxCell>
        <mxCell id="t1DKoS5wMnab59zYMPA--207" value="" style="endArrow=none;html=1;rounded=0;" parent="1" source="xa8UJsieOF3sWng5uSHY-2" target="t1DKoS5wMnab59zYMPA--204" edge="1">
          <mxGeometry relative="1" as="geometry">
            <mxPoint x="-570" y="280" as="sourcePoint" />
            <mxPoint x="-410" y="280" as="targetPoint" />
            <Array as="points">
              <mxPoint x="-365" y="170" />
            </Array>
          </mxGeometry>
        </mxCell>
        <mxCell id="t1DKoS5wMnab59zYMPA--208" value="N" style="resizable=0;html=1;whiteSpace=wrap;align=right;verticalAlign=bottom;" parent="t1DKoS5wMnab59zYMPA--207" connectable="0" vertex="1">
          <mxGeometry x="1" relative="1" as="geometry" />
        </mxCell>
        <mxCell id="t1DKoS5wMnab59zYMPA--209" value="BePurchased" style="shape=associativeEntity;whiteSpace=wrap;html=1;align=center;" parent="1" vertex="1">
          <mxGeometry x="-530" y="367.5" width="110" height="60" as="geometry" />
        </mxCell>
        <mxCell id="t1DKoS5wMnab59zYMPA--210" value="" style="endArrow=none;html=1;rounded=0;" parent="1" source="t1DKoS5wMnab59zYMPA--1" target="t1DKoS5wMnab59zYMPA--209" edge="1">
          <mxGeometry relative="1" as="geometry">
            <mxPoint x="-580" y="340" as="sourcePoint" />
            <mxPoint x="-420" y="340" as="targetPoint" />
            <Array as="points">
              <mxPoint x="-475" y="610" />
            </Array>
          </mxGeometry>
        </mxCell>
        <mxCell id="t1DKoS5wMnab59zYMPA--211" value="N" style="resizable=0;html=1;whiteSpace=wrap;align=right;verticalAlign=bottom;" parent="t1DKoS5wMnab59zYMPA--210" connectable="0" vertex="1">
          <mxGeometry x="1" relative="1" as="geometry">
            <mxPoint x="-1" y="19" as="offset" />
          </mxGeometry>
        </mxCell>
        <mxCell id="t1DKoS5wMnab59zYMPA--212" value="" style="endArrow=none;html=1;rounded=0;" parent="1" source="xa8UJsieOF3sWng5uSHY-2" target="t1DKoS5wMnab59zYMPA--209" edge="1">
          <mxGeometry relative="1" as="geometry">
            <mxPoint x="-640" y="240" as="sourcePoint" />
            <mxPoint x="-480" y="240" as="targetPoint" />
            <Array as="points">
              <mxPoint x="-475" y="170" />
            </Array>
          </mxGeometry>
        </mxCell>
        <mxCell id="t1DKoS5wMnab59zYMPA--213" value="M" style="resizable=0;html=1;whiteSpace=wrap;align=right;verticalAlign=bottom;" parent="t1DKoS5wMnab59zYMPA--212" connectable="0" vertex="1">
          <mxGeometry x="1" relative="1" as="geometry" />
        </mxCell>
        <mxCell id="t1DKoS5wMnab59zYMPA--214" value="" style="endArrow=none;html=1;rounded=0;" parent="1" source="t1DKoS5wMnab59zYMPA--17" target="t1DKoS5wMnab59zYMPA--18" edge="1">
          <mxGeometry relative="1" as="geometry">
            <mxPoint x="-20" y="280" as="sourcePoint" />
            <mxPoint x="140" y="280" as="targetPoint" />
          </mxGeometry>
        </mxCell>
        <mxCell id="t1DKoS5wMnab59zYMPA--215" value="N" style="resizable=0;html=1;whiteSpace=wrap;align=right;verticalAlign=bottom;" parent="t1DKoS5wMnab59zYMPA--214" connectable="0" vertex="1">
          <mxGeometry x="1" relative="1" as="geometry" />
        </mxCell>
        <mxCell id="jHsgVxrCVBSd2UUyfOYS-1" value="Discount" style="rounded=1;arcSize=10;whiteSpace=wrap;html=1;align=center;" parent="1" vertex="1">
          <mxGeometry x="1190" y="240" width="100" height="40" as="geometry" />
        </mxCell>
        <mxCell id="jHsgVxrCVBSd2UUyfOYS-2" value="BeApply" style="shape=rhombus;perimeter=rhombusPerimeter;whiteSpace=wrap;html=1;align=center;" parent="1" vertex="1">
          <mxGeometry x="1080" y="231" width="70" height="60" as="geometry" />
        </mxCell>
        <mxCell id="jHsgVxrCVBSd2UUyfOYS-3" value="" style="shape=link;html=1;rounded=0;" parent="1" source="xa8UJsieOF3sWng5uSHY-3" target="jHsgVxrCVBSd2UUyfOYS-2" edge="1">
          <mxGeometry relative="1" as="geometry">
            <mxPoint x="1140" y="370" as="sourcePoint" />
            <mxPoint x="1300" y="370" as="targetPoint" />
          </mxGeometry>
        </mxCell>
        <mxCell id="jHsgVxrCVBSd2UUyfOYS-4" value="1" style="resizable=0;html=1;whiteSpace=wrap;align=right;verticalAlign=bottom;" parent="jHsgVxrCVBSd2UUyfOYS-3" connectable="0" vertex="1">
          <mxGeometry x="1" relative="1" as="geometry" />
        </mxCell>
        <mxCell id="jHsgVxrCVBSd2UUyfOYS-5" value="" style="shape=link;html=1;rounded=0;" parent="1" source="jHsgVxrCVBSd2UUyfOYS-1" target="jHsgVxrCVBSd2UUyfOYS-2" edge="1">
          <mxGeometry relative="1" as="geometry">
            <mxPoint x="1130" y="350" as="sourcePoint" />
            <mxPoint x="1290" y="350" as="targetPoint" />
          </mxGeometry>
        </mxCell>
        <mxCell id="jHsgVxrCVBSd2UUyfOYS-6" value="1" style="resizable=0;html=1;whiteSpace=wrap;align=right;verticalAlign=bottom;" parent="jHsgVxrCVBSd2UUyfOYS-5" connectable="0" vertex="1">
          <mxGeometry x="1" relative="1" as="geometry">
            <mxPoint x="8" as="offset" />
          </mxGeometry>
        </mxCell>
        <mxCell id="jHsgVxrCVBSd2UUyfOYS-13" value="" style="endArrow=none;html=1;rounded=0;" parent="1" source="t1DKoS5wMnab59zYMPA--1" target="t1DKoS5wMnab59zYMPA--5" edge="1">
          <mxGeometry relative="1" as="geometry">
            <mxPoint x="-270" y="480" as="sourcePoint" />
            <mxPoint x="-110" y="480" as="targetPoint" />
            <Array as="points">
              <mxPoint x="-60" y="611" />
            </Array>
          </mxGeometry>
        </mxCell>
        <mxCell id="jHsgVxrCVBSd2UUyfOYS-14" value="N" style="resizable=0;html=1;whiteSpace=wrap;align=right;verticalAlign=bottom;" parent="jHsgVxrCVBSd2UUyfOYS-13" connectable="0" vertex="1">
          <mxGeometry x="1" relative="1" as="geometry">
            <mxPoint y="20" as="offset" />
          </mxGeometry>
        </mxCell>
        <mxCell id="jHsgVxrCVBSd2UUyfOYS-15" value="" style="endArrow=none;html=1;rounded=0;" parent="1" source="t1DKoS5wMnab59zYMPA--1" target="t1DKoS5wMnab59zYMPA--97" edge="1">
          <mxGeometry relative="1" as="geometry">
            <mxPoint x="-260" y="370" as="sourcePoint" />
            <mxPoint x="-100" y="370" as="targetPoint" />
            <Array as="points">
              <mxPoint x="-165" y="611" />
            </Array>
          </mxGeometry>
        </mxCell>
        <mxCell id="jHsgVxrCVBSd2UUyfOYS-16" value="N" style="resizable=0;html=1;whiteSpace=wrap;align=right;verticalAlign=bottom;" parent="jHsgVxrCVBSd2UUyfOYS-15" connectable="0" vertex="1">
          <mxGeometry x="1" relative="1" as="geometry">
            <mxPoint y="20" as="offset" />
          </mxGeometry>
        </mxCell>
        <mxCell id="jHsgVxrCVBSd2UUyfOYS-17" value="" style="endArrow=none;html=1;rounded=0;" parent="1" source="t1DKoS5wMnab59zYMPA--1" target="t1DKoS5wMnab59zYMPA--9" edge="1">
          <mxGeometry relative="1" as="geometry">
            <mxPoint x="-340" y="380" as="sourcePoint" />
            <mxPoint x="-180" y="380" as="targetPoint" />
            <Array as="points">
              <mxPoint x="-275" y="610" />
            </Array>
          </mxGeometry>
        </mxCell>
        <mxCell id="jHsgVxrCVBSd2UUyfOYS-18" value="N" style="resizable=0;html=1;whiteSpace=wrap;align=right;verticalAlign=bottom;" parent="jHsgVxrCVBSd2UUyfOYS-17" connectable="0" vertex="1">
          <mxGeometry x="1" relative="1" as="geometry">
            <mxPoint y="20" as="offset" />
          </mxGeometry>
        </mxCell>
        <mxCell id="jHsgVxrCVBSd2UUyfOYS-21" value="" style="endArrow=none;html=1;rounded=0;" parent="1" source="t1DKoS5wMnab59zYMPA--1" target="t1DKoS5wMnab59zYMPA--74" edge="1">
          <mxGeometry relative="1" as="geometry">
            <mxPoint x="100" y="700" as="sourcePoint" />
            <mxPoint x="260" y="700" as="targetPoint" />
            <Array as="points">
              <mxPoint x="120" y="610" />
            </Array>
          </mxGeometry>
        </mxCell>
        <mxCell id="jHsgVxrCVBSd2UUyfOYS-22" value="1" style="resizable=0;html=1;whiteSpace=wrap;align=right;verticalAlign=bottom;" parent="jHsgVxrCVBSd2UUyfOYS-21" connectable="0" vertex="1">
          <mxGeometry x="1" relative="1" as="geometry">
            <mxPoint x="-1" y="-1" as="offset" />
          </mxGeometry>
        </mxCell>
        <mxCell id="jHsgVxrCVBSd2UUyfOYS-23" value="" style="endArrow=none;html=1;rounded=0;" parent="1" source="t1DKoS5wMnab59zYMPA--1" target="t1DKoS5wMnab59zYMPA--130" edge="1">
          <mxGeometry relative="1" as="geometry">
            <mxPoint x="150" y="680" as="sourcePoint" />
            <mxPoint x="310" y="680" as="targetPoint" />
            <Array as="points">
              <mxPoint x="450" y="610" />
            </Array>
          </mxGeometry>
        </mxCell>
        <mxCell id="jHsgVxrCVBSd2UUyfOYS-24" value="M" style="resizable=0;html=1;whiteSpace=wrap;align=right;verticalAlign=bottom;" parent="jHsgVxrCVBSd2UUyfOYS-23" connectable="0" vertex="1">
          <mxGeometry x="1" relative="1" as="geometry" />
        </mxCell>
        <mxCell id="jHsgVxrCVBSd2UUyfOYS-27" value="BeAnswered" style="shape=rhombus;perimeter=rhombusPerimeter;whiteSpace=wrap;html=1;align=center;" parent="1" vertex="1">
          <mxGeometry x="60" y="950" width="120" height="60" as="geometry" />
        </mxCell>
        <mxCell id="jHsgVxrCVBSd2UUyfOYS-28" value="ReplyTicket" style="rounded=1;arcSize=10;whiteSpace=wrap;html=1;align=center;" parent="1" vertex="1">
          <mxGeometry x="70" y="1050" width="100" height="40" as="geometry" />
        </mxCell>
        <mxCell id="jHsgVxrCVBSd2UUyfOYS-29" value="" style="endArrow=none;html=1;rounded=0;" parent="1" source="jHsgVxrCVBSd2UUyfOYS-28" target="jHsgVxrCVBSd2UUyfOYS-27" edge="1">
          <mxGeometry relative="1" as="geometry">
            <mxPoint x="-110" y="1050" as="sourcePoint" />
            <mxPoint x="50" y="1050" as="targetPoint" />
          </mxGeometry>
        </mxCell>
        <mxCell id="jHsgVxrCVBSd2UUyfOYS-30" value="N" style="resizable=0;html=1;whiteSpace=wrap;align=right;verticalAlign=bottom;" parent="jHsgVxrCVBSd2UUyfOYS-29" connectable="0" vertex="1">
          <mxGeometry x="1" relative="1" as="geometry">
            <mxPoint x="-1" y="18" as="offset" />
          </mxGeometry>
        </mxCell>
        <mxCell id="jHsgVxrCVBSd2UUyfOYS-31" value="" style="endArrow=none;html=1;rounded=0;" parent="1" source="t1DKoS5wMnab59zYMPA--73" target="jHsgVxrCVBSd2UUyfOYS-27" edge="1">
          <mxGeometry relative="1" as="geometry">
            <mxPoint x="-20" y="960" as="sourcePoint" />
            <mxPoint x="140" y="960" as="targetPoint" />
          </mxGeometry>
        </mxCell>
        <mxCell id="jHsgVxrCVBSd2UUyfOYS-32" value="1" style="resizable=0;html=1;whiteSpace=wrap;align=right;verticalAlign=bottom;" parent="jHsgVxrCVBSd2UUyfOYS-31" connectable="0" vertex="1">
          <mxGeometry x="1" relative="1" as="geometry" />
        </mxCell>
        <mxCell id="jHsgVxrCVBSd2UUyfOYS-37" value="Question" style="rounded=1;arcSize=10;whiteSpace=wrap;html=1;align=center;" parent="1" vertex="1">
          <mxGeometry x="-1620" y="368.5" width="60" height="40" as="geometry" />
        </mxCell>
        <mxCell id="jHsgVxrCVBSd2UUyfOYS-43" value="" style="endArrow=none;html=1;rounded=0;" parent="1" source="xa8UJsieOF3sWng5uSHY-2" target="t1DKoS5wMnab59zYMPA--50" edge="1">
          <mxGeometry relative="1" as="geometry">
            <mxPoint x="-130" y="100" as="sourcePoint" />
            <mxPoint x="30" y="100" as="targetPoint" />
            <Array as="points">
              <mxPoint x="120" y="170" />
            </Array>
          </mxGeometry>
        </mxCell>
        <mxCell id="jHsgVxrCVBSd2UUyfOYS-44" value="N" style="resizable=0;html=1;whiteSpace=wrap;align=right;verticalAlign=bottom;" parent="jHsgVxrCVBSd2UUyfOYS-43" connectable="0" vertex="1">
          <mxGeometry x="1" relative="1" as="geometry">
            <mxPoint x="-1" y="19" as="offset" />
          </mxGeometry>
        </mxCell>
        <mxCell id="jHsgVxrCVBSd2UUyfOYS-45" value="" style="endArrow=none;html=1;rounded=0;" parent="1" source="t1DKoS5wMnab59zYMPA--17" target="t1DKoS5wMnab59zYMPA--55" edge="1">
          <mxGeometry relative="1" as="geometry">
            <mxPoint x="20" y="-210" as="sourcePoint" />
            <mxPoint x="180" y="-210" as="targetPoint" />
          </mxGeometry>
        </mxCell>
        <mxCell id="jHsgVxrCVBSd2UUyfOYS-46" value="M" style="resizable=0;html=1;whiteSpace=wrap;align=right;verticalAlign=bottom;" parent="jHsgVxrCVBSd2UUyfOYS-45" connectable="0" vertex="1">
          <mxGeometry x="1" relative="1" as="geometry">
            <mxPoint x="14" as="offset" />
          </mxGeometry>
        </mxCell>
        <mxCell id="jHsgVxrCVBSd2UUyfOYS-47" value="" style="endArrow=none;html=1;rounded=0;" parent="1" source="t1DKoS5wMnab59zYMPA--49" target="t1DKoS5wMnab59zYMPA--55" edge="1">
          <mxGeometry relative="1" as="geometry">
            <mxPoint x="-340" y="-140" as="sourcePoint" />
            <mxPoint x="-180" y="-140" as="targetPoint" />
            <Array as="points" />
          </mxGeometry>
        </mxCell>
        <mxCell id="jHsgVxrCVBSd2UUyfOYS-48" value="N" style="resizable=0;html=1;whiteSpace=wrap;align=right;verticalAlign=bottom;" parent="jHsgVxrCVBSd2UUyfOYS-47" connectable="0" vertex="1">
          <mxGeometry x="1" relative="1" as="geometry">
            <mxPoint x="-2" y="20" as="offset" />
          </mxGeometry>
        </mxCell>
        <mxCell id="jHsgVxrCVBSd2UUyfOYS-49" value="" style="endArrow=none;html=1;rounded=0;" parent="1" source="t1DKoS5wMnab59zYMPA--1" target="t1DKoS5wMnab59zYMPA--163" edge="1">
          <mxGeometry relative="1" as="geometry">
            <mxPoint x="380" y="750" as="sourcePoint" />
            <mxPoint x="540" y="750" as="targetPoint" />
            <Array as="points">
              <mxPoint x="233" y="611" />
            </Array>
          </mxGeometry>
        </mxCell>
        <mxCell id="jHsgVxrCVBSd2UUyfOYS-50" value="M" style="resizable=0;html=1;whiteSpace=wrap;align=right;verticalAlign=bottom;" parent="jHsgVxrCVBSd2UUyfOYS-49" connectable="0" vertex="1">
          <mxGeometry x="1" relative="1" as="geometry" />
        </mxCell>
        <mxCell id="jHsgVxrCVBSd2UUyfOYS-51" value="" style="endArrow=none;html=1;rounded=0;" parent="1" source="t1DKoS5wMnab59zYMPA--25" target="t1DKoS5wMnab59zYMPA--163" edge="1">
          <mxGeometry relative="1" as="geometry">
            <mxPoint x="290" y="670" as="sourcePoint" />
            <mxPoint x="450" y="670" as="targetPoint" />
            <Array as="points">
              <mxPoint x="1360" y="170" />
              <mxPoint x="1360" y="840" />
              <mxPoint x="233" y="840" />
            </Array>
          </mxGeometry>
        </mxCell>
        <mxCell id="jHsgVxrCVBSd2UUyfOYS-52" value="N" style="resizable=0;html=1;whiteSpace=wrap;align=right;verticalAlign=bottom;" parent="jHsgVxrCVBSd2UUyfOYS-51" connectable="0" vertex="1">
          <mxGeometry x="1" relative="1" as="geometry">
            <mxPoint y="20" as="offset" />
          </mxGeometry>
        </mxCell>
        <mxCell id="jHsgVxrCVBSd2UUyfOYS-58" value="ToHave" style="shape=rhombus;perimeter=rhombusPerimeter;whiteSpace=wrap;html=1;align=center;" parent="1" vertex="1">
          <mxGeometry x="-90" y="-30" width="80" height="60" as="geometry" />
        </mxCell>
        <mxCell id="jHsgVxrCVBSd2UUyfOYS-59" value="Category" style="rounded=1;arcSize=10;whiteSpace=wrap;html=1;align=center;" parent="1" vertex="1">
          <mxGeometry x="-100" y="-110" width="100" height="40" as="geometry" />
        </mxCell>
        <mxCell id="jHsgVxrCVBSd2UUyfOYS-60" value="" style="endArrow=none;html=1;rounded=0;" parent="1" source="jHsgVxrCVBSd2UUyfOYS-59" target="jHsgVxrCVBSd2UUyfOYS-58" edge="1">
          <mxGeometry relative="1" as="geometry">
            <mxPoint x="-500" y="100" as="sourcePoint" />
            <mxPoint x="-340" y="100" as="targetPoint" />
          </mxGeometry>
        </mxCell>
        <mxCell id="jHsgVxrCVBSd2UUyfOYS-61" value="1" style="resizable=0;html=1;whiteSpace=wrap;align=right;verticalAlign=bottom;" parent="jHsgVxrCVBSd2UUyfOYS-60" connectable="0" vertex="1">
          <mxGeometry x="1" relative="1" as="geometry" />
        </mxCell>
        <mxCell id="jHsgVxrCVBSd2UUyfOYS-62" value="" style="endArrow=none;html=1;rounded=0;" parent="1" source="xa8UJsieOF3sWng5uSHY-2" target="jHsgVxrCVBSd2UUyfOYS-58" edge="1">
          <mxGeometry relative="1" as="geometry">
            <mxPoint x="-390" y="110" as="sourcePoint" />
            <mxPoint x="-230" y="110" as="targetPoint" />
            <Array as="points">
              <mxPoint x="-50" y="170" />
            </Array>
          </mxGeometry>
        </mxCell>
        <mxCell id="jHsgVxrCVBSd2UUyfOYS-63" value="N" style="resizable=0;html=1;whiteSpace=wrap;align=right;verticalAlign=bottom;" parent="jHsgVxrCVBSd2UUyfOYS-62" connectable="0" vertex="1">
          <mxGeometry x="1" relative="1" as="geometry">
            <mxPoint x="-1" y="17" as="offset" />
          </mxGeometry>
        </mxCell>
        <mxCell id="jHsgVxrCVBSd2UUyfOYS-64" value="" style="endArrow=none;html=1;rounded=0;" parent="1" source="t1DKoS5wMnab59zYMPA--49" target="t1DKoS5wMnab59zYMPA--50" edge="1">
          <mxGeometry relative="1" as="geometry">
            <mxPoint x="-120" y="70" as="sourcePoint" />
            <mxPoint x="40" y="70" as="targetPoint" />
          </mxGeometry>
        </mxCell>
        <mxCell id="jHsgVxrCVBSd2UUyfOYS-65" value="M" style="resizable=0;html=1;whiteSpace=wrap;align=right;verticalAlign=bottom;" parent="jHsgVxrCVBSd2UUyfOYS-64" connectable="0" vertex="1">
          <mxGeometry x="1" relative="1" as="geometry" />
        </mxCell>
        <mxCell id="jHsgVxrCVBSd2UUyfOYS-66" value="RelatedTo" style="shape=rhombus;perimeter=rhombusPerimeter;whiteSpace=wrap;html=1;align=center;" parent="1" vertex="1">
          <mxGeometry x="-210" y="-30" width="110" height="60" as="geometry" />
        </mxCell>
        <mxCell id="jHsgVxrCVBSd2UUyfOYS-68" value="PreRequest" style="rounded=1;arcSize=10;whiteSpace=wrap;html=1;align=center;" parent="1" vertex="1">
          <mxGeometry x="-205" y="-110" width="100" height="40" as="geometry" />
        </mxCell>
        <mxCell id="jHsgVxrCVBSd2UUyfOYS-69" value="" style="endArrow=none;html=1;rounded=0;" parent="1" source="xa8UJsieOF3sWng5uSHY-2" target="jHsgVxrCVBSd2UUyfOYS-66" edge="1">
          <mxGeometry relative="1" as="geometry">
            <mxPoint x="-210" y="80" as="sourcePoint" />
            <mxPoint x="-50" y="80" as="targetPoint" />
            <Array as="points">
              <mxPoint x="-155" y="170" />
            </Array>
          </mxGeometry>
        </mxCell>
        <mxCell id="jHsgVxrCVBSd2UUyfOYS-70" value="1" style="resizable=0;html=1;whiteSpace=wrap;align=right;verticalAlign=bottom;" parent="jHsgVxrCVBSd2UUyfOYS-69" connectable="0" vertex="1">
          <mxGeometry x="1" relative="1" as="geometry">
            <mxPoint x="-1" y="17" as="offset" />
          </mxGeometry>
        </mxCell>
        <mxCell id="jHsgVxrCVBSd2UUyfOYS-71" value="" style="endArrow=none;html=1;rounded=0;" parent="1" source="jHsgVxrCVBSd2UUyfOYS-68" target="jHsgVxrCVBSd2UUyfOYS-66" edge="1">
          <mxGeometry relative="1" as="geometry">
            <mxPoint x="-390" y="30" as="sourcePoint" />
            <mxPoint x="-230" y="30" as="targetPoint" />
          </mxGeometry>
        </mxCell>
        <mxCell id="jHsgVxrCVBSd2UUyfOYS-72" value="N" style="resizable=0;html=1;whiteSpace=wrap;align=right;verticalAlign=bottom;" parent="jHsgVxrCVBSd2UUyfOYS-71" connectable="0" vertex="1">
          <mxGeometry x="1" relative="1" as="geometry" />
        </mxCell>
        <mxCell id="jHsgVxrCVBSd2UUyfOYS-85" value="RelatedTo" style="shape=rhombus;perimeter=rhombusPerimeter;whiteSpace=wrap;html=1;align=center;" parent="1" vertex="1">
          <mxGeometry x="-340" y="-30" width="120" height="60" as="geometry" />
        </mxCell>
        <mxCell id="jHsgVxrCVBSd2UUyfOYS-86" value="" style="endArrow=none;html=1;rounded=0;" parent="1" source="jHsgVxrCVBSd2UUyfOYS-88" target="jHsgVxrCVBSd2UUyfOYS-85" edge="1">
          <mxGeometry relative="1" as="geometry">
            <mxPoint x="-450" y="90" as="sourcePoint" />
            <mxPoint x="-290" y="90" as="targetPoint" />
          </mxGeometry>
        </mxCell>
        <mxCell id="jHsgVxrCVBSd2UUyfOYS-87" value="N" style="resizable=0;html=1;whiteSpace=wrap;align=right;verticalAlign=bottom;" parent="jHsgVxrCVBSd2UUyfOYS-86" connectable="0" vertex="1">
          <mxGeometry x="1" relative="1" as="geometry" />
        </mxCell>
        <mxCell id="jHsgVxrCVBSd2UUyfOYS-88" value="Video" style="rounded=1;arcSize=10;whiteSpace=wrap;html=1;align=center;" parent="1" vertex="1">
          <mxGeometry x="-330" y="-110" width="100" height="40" as="geometry" />
        </mxCell>
        <mxCell id="jHsgVxrCVBSd2UUyfOYS-89" value="" style="endArrow=none;html=1;rounded=0;" parent="1" source="xa8UJsieOF3sWng5uSHY-2" target="jHsgVxrCVBSd2UUyfOYS-85" edge="1">
          <mxGeometry relative="1" as="geometry">
            <mxPoint x="-390" y="50" as="sourcePoint" />
            <mxPoint x="-230" y="50" as="targetPoint" />
            <Array as="points">
              <mxPoint x="-280" y="170" />
            </Array>
          </mxGeometry>
        </mxCell>
        <mxCell id="jHsgVxrCVBSd2UUyfOYS-90" value="1" style="resizable=0;html=1;whiteSpace=wrap;align=right;verticalAlign=bottom;" parent="jHsgVxrCVBSd2UUyfOYS-89" connectable="0" vertex="1">
          <mxGeometry x="1" relative="1" as="geometry">
            <mxPoint x="-1" y="19" as="offset" />
          </mxGeometry>
        </mxCell>
        <mxCell id="jHsgVxrCVBSd2UUyfOYS-91" value="ShoppingCart" style="rounded=1;arcSize=10;whiteSpace=wrap;html=1;align=center;" parent="1" vertex="1">
          <mxGeometry x="-855" y="370" width="100" height="40" as="geometry" />
        </mxCell>
        <mxCell id="jHsgVxrCVBSd2UUyfOYS-92" value="PlaceIn" style="shape=associativeEntity;whiteSpace=wrap;html=1;align=center;" parent="1" vertex="1">
          <mxGeometry x="-850" y="220" width="90" height="60" as="geometry" />
        </mxCell>
        <mxCell id="jHsgVxrCVBSd2UUyfOYS-93" value="" style="endArrow=none;html=1;rounded=0;" parent="1" source="xa8UJsieOF3sWng5uSHY-2" target="jHsgVxrCVBSd2UUyfOYS-92" edge="1">
          <mxGeometry relative="1" as="geometry">
            <mxPoint x="-550" y="100" as="sourcePoint" />
            <mxPoint x="-390" y="100" as="targetPoint" />
            <Array as="points">
              <mxPoint x="-355" y="170" />
              <mxPoint x="-805" y="170" />
            </Array>
          </mxGeometry>
        </mxCell>
        <mxCell id="jHsgVxrCVBSd2UUyfOYS-94" value="M" style="resizable=0;html=1;whiteSpace=wrap;align=right;verticalAlign=bottom;" parent="jHsgVxrCVBSd2UUyfOYS-93" connectable="0" vertex="1">
          <mxGeometry x="1" relative="1" as="geometry">
            <mxPoint x="-2" y="-4" as="offset" />
          </mxGeometry>
        </mxCell>
        <mxCell id="jHsgVxrCVBSd2UUyfOYS-95" value="" style="endArrow=none;html=1;rounded=0;" parent="1" source="jHsgVxrCVBSd2UUyfOYS-91" target="jHsgVxrCVBSd2UUyfOYS-92" edge="1">
          <mxGeometry relative="1" as="geometry">
            <mxPoint x="-580" y="-10" as="sourcePoint" />
            <mxPoint x="-420" y="-10" as="targetPoint" />
          </mxGeometry>
        </mxCell>
        <mxCell id="jHsgVxrCVBSd2UUyfOYS-96" value="N" style="resizable=0;html=1;whiteSpace=wrap;align=right;verticalAlign=bottom;" parent="jHsgVxrCVBSd2UUyfOYS-95" connectable="0" vertex="1">
          <mxGeometry x="1" relative="1" as="geometry">
            <mxPoint x="-1" y="19" as="offset" />
          </mxGeometry>
        </mxCell>
        <mxCell id="jHsgVxrCVBSd2UUyfOYS-97" value="RelatedTo" style="shape=rhombus;perimeter=rhombusPerimeter;whiteSpace=wrap;html=1;align=center;" parent="1" vertex="1">
          <mxGeometry x="-865" y="480" width="120" height="60" as="geometry" />
        </mxCell>
        <mxCell id="jHsgVxrCVBSd2UUyfOYS-98" value="" style="endArrow=none;html=1;rounded=0;" parent="1" source="jHsgVxrCVBSd2UUyfOYS-91" target="jHsgVxrCVBSd2UUyfOYS-97" edge="1">
          <mxGeometry relative="1" as="geometry">
            <mxPoint x="-910" y="260" as="sourcePoint" />
            <mxPoint x="-750" y="260" as="targetPoint" />
            <Array as="points" />
          </mxGeometry>
        </mxCell>
        <mxCell id="jHsgVxrCVBSd2UUyfOYS-99" value="N" style="resizable=0;html=1;whiteSpace=wrap;align=right;verticalAlign=bottom;" parent="jHsgVxrCVBSd2UUyfOYS-98" connectable="0" vertex="1">
          <mxGeometry x="1" relative="1" as="geometry" />
        </mxCell>
        <mxCell id="jHsgVxrCVBSd2UUyfOYS-100" value="" style="endArrow=none;html=1;rounded=0;" parent="1" source="t1DKoS5wMnab59zYMPA--1" target="jHsgVxrCVBSd2UUyfOYS-97" edge="1">
          <mxGeometry relative="1" as="geometry">
            <mxPoint x="-890" y="500" as="sourcePoint" />
            <mxPoint x="-730" y="500" as="targetPoint" />
            <Array as="points">
              <mxPoint x="-805" y="610" />
            </Array>
          </mxGeometry>
        </mxCell>
        <mxCell id="jHsgVxrCVBSd2UUyfOYS-101" value="1" style="resizable=0;html=1;whiteSpace=wrap;align=right;verticalAlign=bottom;" parent="jHsgVxrCVBSd2UUyfOYS-100" connectable="0" vertex="1">
          <mxGeometry x="1" relative="1" as="geometry">
            <mxPoint x="-1" y="18" as="offset" />
          </mxGeometry>
        </mxCell>
        <mxCell id="jHsgVxrCVBSd2UUyfOYS-102" value="Wallet" style="rounded=1;arcSize=10;whiteSpace=wrap;html=1;align=center;" parent="1" vertex="1">
          <mxGeometry x="-400" y="870" width="100" height="40" as="geometry" />
        </mxCell>
        <mxCell id="jHsgVxrCVBSd2UUyfOYS-103" value="ToHave" style="shape=rhombus;perimeter=rhombusPerimeter;whiteSpace=wrap;html=1;align=center;" parent="1" vertex="1">
          <mxGeometry x="-410" y="740" width="120" height="60" as="geometry" />
        </mxCell>
        <mxCell id="jHsgVxrCVBSd2UUyfOYS-104" value="" style="shape=link;html=1;rounded=0;" parent="1" source="jHsgVxrCVBSd2UUyfOYS-102" target="jHsgVxrCVBSd2UUyfOYS-103" edge="1">
          <mxGeometry relative="1" as="geometry">
            <mxPoint x="-650" y="790" as="sourcePoint" />
            <mxPoint x="-490" y="790" as="targetPoint" />
          </mxGeometry>
        </mxCell>
        <mxCell id="jHsgVxrCVBSd2UUyfOYS-105" value="1" style="resizable=0;html=1;whiteSpace=wrap;align=right;verticalAlign=bottom;" parent="jHsgVxrCVBSd2UUyfOYS-104" connectable="0" vertex="1">
          <mxGeometry x="1" relative="1" as="geometry">
            <mxPoint x="-4" y="17" as="offset" />
          </mxGeometry>
        </mxCell>
        <mxCell id="jHsgVxrCVBSd2UUyfOYS-106" value="" style="shape=link;html=1;rounded=0;" parent="1" target="jHsgVxrCVBSd2UUyfOYS-103" edge="1">
          <mxGeometry relative="1" as="geometry">
            <mxPoint x="-350" y="610" as="sourcePoint" />
            <mxPoint x="-410" y="720" as="targetPoint" />
            <Array as="points">
              <mxPoint x="-350" y="611" />
            </Array>
          </mxGeometry>
        </mxCell>
        <mxCell id="jHsgVxrCVBSd2UUyfOYS-107" value="1" style="resizable=0;html=1;whiteSpace=wrap;align=right;verticalAlign=bottom;" parent="jHsgVxrCVBSd2UUyfOYS-106" connectable="0" vertex="1">
          <mxGeometry x="1" relative="1" as="geometry">
            <mxPoint x="-3" as="offset" />
          </mxGeometry>
        </mxCell>
        <mxCell id="jHsgVxrCVBSd2UUyfOYS-108" value="WalletFlow" style="rounded=1;arcSize=10;whiteSpace=wrap;html=1;align=center;" parent="1" vertex="1">
          <mxGeometry x="-400" y="1040" width="100" height="40" as="geometry" />
        </mxCell>
        <mxCell id="jHsgVxrCVBSd2UUyfOYS-109" value="ToHave" style="shape=rhombus;perimeter=rhombusPerimeter;whiteSpace=wrap;html=1;align=center;" parent="1" vertex="1">
          <mxGeometry x="-410" y="950" width="120" height="60" as="geometry" />
        </mxCell>
        <mxCell id="jHsgVxrCVBSd2UUyfOYS-110" value="" style="endArrow=none;html=1;rounded=0;" parent="1" source="jHsgVxrCVBSd2UUyfOYS-108" target="jHsgVxrCVBSd2UUyfOYS-109" edge="1">
          <mxGeometry relative="1" as="geometry">
            <mxPoint x="-640" y="990" as="sourcePoint" />
            <mxPoint x="-480" y="990" as="targetPoint" />
          </mxGeometry>
        </mxCell>
        <mxCell id="jHsgVxrCVBSd2UUyfOYS-111" value="N" style="resizable=0;html=1;whiteSpace=wrap;align=right;verticalAlign=bottom;" parent="jHsgVxrCVBSd2UUyfOYS-110" connectable="0" vertex="1">
          <mxGeometry x="1" relative="1" as="geometry">
            <mxPoint x="-2" y="17" as="offset" />
          </mxGeometry>
        </mxCell>
        <mxCell id="jHsgVxrCVBSd2UUyfOYS-112" value="" style="endArrow=none;html=1;rounded=0;" parent="1" source="jHsgVxrCVBSd2UUyfOYS-102" target="jHsgVxrCVBSd2UUyfOYS-109" edge="1">
          <mxGeometry relative="1" as="geometry">
            <mxPoint x="-570" y="940" as="sourcePoint" />
            <mxPoint x="-410" y="940" as="targetPoint" />
          </mxGeometry>
        </mxCell>
        <mxCell id="jHsgVxrCVBSd2UUyfOYS-113" value="1" style="resizable=0;html=1;whiteSpace=wrap;align=right;verticalAlign=bottom;" parent="jHsgVxrCVBSd2UUyfOYS-112" connectable="0" vertex="1">
          <mxGeometry x="1" relative="1" as="geometry" />
        </mxCell>
        <mxCell id="jHsgVxrCVBSd2UUyfOYS-114" value="Comment" style="rounded=1;arcSize=10;whiteSpace=wrap;html=1;align=center;" parent="1" vertex="1">
          <mxGeometry x="-985" y="370" width="90" height="40" as="geometry" />
        </mxCell>
        <mxCell id="jHsgVxrCVBSd2UUyfOYS-115" value="ToHave" style="shape=rhombus;perimeter=rhombusPerimeter;whiteSpace=wrap;html=1;align=center;" parent="1" vertex="1">
          <mxGeometry x="-1000" y="221" width="120" height="60" as="geometry" />
        </mxCell>
        <mxCell id="jHsgVxrCVBSd2UUyfOYS-116" value="" style="endArrow=none;html=1;rounded=0;" parent="1" source="jHsgVxrCVBSd2UUyfOYS-114" target="jHsgVxrCVBSd2UUyfOYS-115" edge="1">
          <mxGeometry relative="1" as="geometry">
            <mxPoint x="-1180" y="320" as="sourcePoint" />
            <mxPoint x="-1020" y="320" as="targetPoint" />
          </mxGeometry>
        </mxCell>
        <mxCell id="jHsgVxrCVBSd2UUyfOYS-117" value="N" style="resizable=0;html=1;whiteSpace=wrap;align=right;verticalAlign=bottom;" parent="jHsgVxrCVBSd2UUyfOYS-116" connectable="0" vertex="1">
          <mxGeometry x="1" relative="1" as="geometry">
            <mxPoint x="-2" y="18" as="offset" />
          </mxGeometry>
        </mxCell>
        <mxCell id="jHsgVxrCVBSd2UUyfOYS-118" value="" style="endArrow=none;html=1;rounded=0;" parent="1" source="xa8UJsieOF3sWng5uSHY-2" target="jHsgVxrCVBSd2UUyfOYS-115" edge="1">
          <mxGeometry relative="1" as="geometry">
            <mxPoint x="-1130" y="170" as="sourcePoint" />
            <mxPoint x="-970" y="170" as="targetPoint" />
            <Array as="points">
              <mxPoint x="-940" y="170" />
            </Array>
          </mxGeometry>
        </mxCell>
        <mxCell id="jHsgVxrCVBSd2UUyfOYS-119" value="1" style="resizable=0;html=1;whiteSpace=wrap;align=right;verticalAlign=bottom;" parent="jHsgVxrCVBSd2UUyfOYS-118" connectable="0" vertex="1">
          <mxGeometry x="1" relative="1" as="geometry" />
        </mxCell>
        <mxCell id="jHsgVxrCVBSd2UUyfOYS-120" value="RelatedTo" style="shape=rhombus;perimeter=rhombusPerimeter;whiteSpace=wrap;html=1;align=center;" parent="1" vertex="1">
          <mxGeometry x="-1000" y="480" width="120" height="60" as="geometry" />
        </mxCell>
        <mxCell id="jHsgVxrCVBSd2UUyfOYS-122" value="" style="endArrow=none;html=1;rounded=0;" parent="1" source="t1DKoS5wMnab59zYMPA--1" target="jHsgVxrCVBSd2UUyfOYS-120" edge="1">
          <mxGeometry relative="1" as="geometry">
            <mxPoint x="-1200" y="450" as="sourcePoint" />
            <mxPoint x="-1040" y="450" as="targetPoint" />
            <Array as="points">
              <mxPoint x="-940" y="610" />
            </Array>
          </mxGeometry>
        </mxCell>
        <mxCell id="jHsgVxrCVBSd2UUyfOYS-123" value="1" style="resizable=0;html=1;whiteSpace=wrap;align=right;verticalAlign=bottom;" parent="jHsgVxrCVBSd2UUyfOYS-122" connectable="0" vertex="1">
          <mxGeometry x="1" relative="1" as="geometry">
            <mxPoint x="-2" y="17" as="offset" />
          </mxGeometry>
        </mxCell>
        <mxCell id="jHsgVxrCVBSd2UUyfOYS-124" value="" style="endArrow=none;html=1;rounded=0;" parent="1" source="jHsgVxrCVBSd2UUyfOYS-114" target="jHsgVxrCVBSd2UUyfOYS-120" edge="1">
          <mxGeometry relative="1" as="geometry">
            <mxPoint x="-1090" y="460" as="sourcePoint" />
            <mxPoint x="-930" y="460" as="targetPoint" />
          </mxGeometry>
        </mxCell>
        <mxCell id="jHsgVxrCVBSd2UUyfOYS-125" value="N" style="resizable=0;html=1;whiteSpace=wrap;align=right;verticalAlign=bottom;" parent="jHsgVxrCVBSd2UUyfOYS-124" connectable="0" vertex="1">
          <mxGeometry x="1" relative="1" as="geometry" />
        </mxCell>
        <mxCell id="jHsgVxrCVBSd2UUyfOYS-126" value="BeReport" style="shape=associativeEntity;whiteSpace=wrap;html=1;align=center;" parent="1" vertex="1">
          <mxGeometry x="-1150" y="480" width="140" height="60" as="geometry" />
        </mxCell>
        <mxCell id="jHsgVxrCVBSd2UUyfOYS-127" value="" style="endArrow=none;html=1;rounded=0;" parent="1" source="t1DKoS5wMnab59zYMPA--1" target="jHsgVxrCVBSd2UUyfOYS-126" edge="1">
          <mxGeometry relative="1" as="geometry">
            <mxPoint x="-980" y="640" as="sourcePoint" />
            <mxPoint x="-1020" y="630" as="targetPoint" />
            <Array as="points">
              <mxPoint x="-1080" y="610" />
            </Array>
          </mxGeometry>
        </mxCell>
        <mxCell id="jHsgVxrCVBSd2UUyfOYS-128" value="N" style="resizable=0;html=1;whiteSpace=wrap;align=right;verticalAlign=bottom;" parent="jHsgVxrCVBSd2UUyfOYS-127" connectable="0" vertex="1">
          <mxGeometry x="1" relative="1" as="geometry">
            <mxPoint y="19" as="offset" />
          </mxGeometry>
        </mxCell>
        <mxCell id="jHsgVxrCVBSd2UUyfOYS-129" value="" style="endArrow=none;html=1;rounded=0;" parent="1" source="jHsgVxrCVBSd2UUyfOYS-114" target="jHsgVxrCVBSd2UUyfOYS-126" edge="1">
          <mxGeometry relative="1" as="geometry">
            <mxPoint x="-1280" y="390" as="sourcePoint" />
            <mxPoint x="-1120" y="390" as="targetPoint" />
            <Array as="points">
              <mxPoint x="-1080" y="390" />
            </Array>
          </mxGeometry>
        </mxCell>
        <mxCell id="jHsgVxrCVBSd2UUyfOYS-130" value="N" style="resizable=0;html=1;whiteSpace=wrap;align=right;verticalAlign=bottom;" parent="jHsgVxrCVBSd2UUyfOYS-129" connectable="0" vertex="1">
          <mxGeometry x="1" relative="1" as="geometry">
            <mxPoint x="-1" y="-1" as="offset" />
          </mxGeometry>
        </mxCell>
        <mxCell id="jHsgVxrCVBSd2UUyfOYS-131" value="ReplyComment" style="rounded=1;arcSize=10;whiteSpace=wrap;html=1;align=center;" parent="1" vertex="1">
          <mxGeometry x="-1300" y="371" width="100" height="40" as="geometry" />
        </mxCell>
        <mxCell id="jHsgVxrCVBSd2UUyfOYS-132" value="Answer" style="shape=rhombus;perimeter=rhombusPerimeter;whiteSpace=wrap;html=1;align=center;" parent="1" vertex="1">
          <mxGeometry x="-1180" y="360" width="80" height="60" as="geometry" />
        </mxCell>
        <mxCell id="jHsgVxrCVBSd2UUyfOYS-134" value="" style="endArrow=none;html=1;rounded=0;" parent="1" source="jHsgVxrCVBSd2UUyfOYS-131" target="jHsgVxrCVBSd2UUyfOYS-132" edge="1">
          <mxGeometry relative="1" as="geometry">
            <mxPoint x="-1040" y="443" as="sourcePoint" />
            <mxPoint x="-880" y="443" as="targetPoint" />
            <Array as="points" />
          </mxGeometry>
        </mxCell>
        <mxCell id="jHsgVxrCVBSd2UUyfOYS-135" value="N" style="resizable=0;html=1;whiteSpace=wrap;align=right;verticalAlign=bottom;" parent="jHsgVxrCVBSd2UUyfOYS-134" connectable="0" vertex="1">
          <mxGeometry x="1" relative="1" as="geometry">
            <mxPoint x="2" as="offset" />
          </mxGeometry>
        </mxCell>
        <mxCell id="jHsgVxrCVBSd2UUyfOYS-136" value="" style="endArrow=none;html=1;rounded=0;" parent="1" source="jHsgVxrCVBSd2UUyfOYS-114" target="jHsgVxrCVBSd2UUyfOYS-132" edge="1">
          <mxGeometry relative="1" as="geometry">
            <mxPoint x="-1430" y="400" as="sourcePoint" />
            <mxPoint x="-1270" y="400" as="targetPoint" />
          </mxGeometry>
        </mxCell>
        <mxCell id="jHsgVxrCVBSd2UUyfOYS-137" value="1" style="resizable=0;html=1;whiteSpace=wrap;align=right;verticalAlign=bottom;" parent="jHsgVxrCVBSd2UUyfOYS-136" connectable="0" vertex="1">
          <mxGeometry x="1" relative="1" as="geometry">
            <mxPoint x="6" as="offset" />
          </mxGeometry>
        </mxCell>
        <mxCell id="jHsgVxrCVBSd2UUyfOYS-138" value="" style="endArrow=none;html=1;rounded=0;" parent="1" source="xa8UJsieOF3sWng5uSHY-2" target="t1DKoS5wMnab59zYMPA--5" edge="1">
          <mxGeometry relative="1" as="geometry">
            <mxPoint x="-40" y="230" as="sourcePoint" />
            <mxPoint x="120" y="230" as="targetPoint" />
            <Array as="points">
              <mxPoint x="-60" y="170" />
            </Array>
          </mxGeometry>
        </mxCell>
        <mxCell id="jHsgVxrCVBSd2UUyfOYS-139" value="M" style="resizable=0;html=1;whiteSpace=wrap;align=right;verticalAlign=bottom;" parent="jHsgVxrCVBSd2UUyfOYS-138" connectable="0" vertex="1">
          <mxGeometry x="1" relative="1" as="geometry" />
        </mxCell>
        <mxCell id="jHsgVxrCVBSd2UUyfOYS-140" value="" style="endArrow=none;html=1;rounded=0;" parent="1" source="xa8UJsieOF3sWng5uSHY-2" target="t1DKoS5wMnab59zYMPA--97" edge="1">
          <mxGeometry relative="1" as="geometry">
            <mxPoint x="-320" y="210" as="sourcePoint" />
            <mxPoint x="-160" y="210" as="targetPoint" />
            <Array as="points">
              <mxPoint x="-165" y="170" />
            </Array>
          </mxGeometry>
        </mxCell>
        <mxCell id="jHsgVxrCVBSd2UUyfOYS-141" value="M" style="resizable=0;html=1;whiteSpace=wrap;align=right;verticalAlign=bottom;" parent="jHsgVxrCVBSd2UUyfOYS-140" connectable="0" vertex="1">
          <mxGeometry x="1" relative="1" as="geometry" />
        </mxCell>
        <mxCell id="jHsgVxrCVBSd2UUyfOYS-142" value="" style="endArrow=none;html=1;rounded=0;" parent="1" source="xa8UJsieOF3sWng5uSHY-2" target="t1DKoS5wMnab59zYMPA--9" edge="1">
          <mxGeometry relative="1" as="geometry">
            <mxPoint x="-390" y="310" as="sourcePoint" />
            <mxPoint x="-230" y="310" as="targetPoint" />
            <Array as="points">
              <mxPoint x="-275" y="170" />
            </Array>
          </mxGeometry>
        </mxCell>
        <mxCell id="jHsgVxrCVBSd2UUyfOYS-143" value="M" style="resizable=0;html=1;whiteSpace=wrap;align=right;verticalAlign=bottom;" parent="jHsgVxrCVBSd2UUyfOYS-142" connectable="0" vertex="1">
          <mxGeometry x="1" relative="1" as="geometry" />
        </mxCell>
        <mxCell id="jHsgVxrCVBSd2UUyfOYS-146" value="ToHave" style="shape=rhombus;perimeter=rhombusPerimeter;whiteSpace=wrap;html=1;align=center;" parent="1" vertex="1">
          <mxGeometry x="-1465" y="221" width="90" height="60" as="geometry" />
        </mxCell>
        <mxCell id="jHsgVxrCVBSd2UUyfOYS-147" value="" style="endArrow=none;html=1;rounded=0;" parent="1" source="t1DKoS5wMnab59zYMPA--168" target="jHsgVxrCVBSd2UUyfOYS-146" edge="1">
          <mxGeometry relative="1" as="geometry">
            <mxPoint x="-1550" y="341" as="sourcePoint" />
            <mxPoint x="-1390" y="341" as="targetPoint" />
          </mxGeometry>
        </mxCell>
        <mxCell id="jHsgVxrCVBSd2UUyfOYS-148" value="N" style="resizable=0;html=1;whiteSpace=wrap;align=right;verticalAlign=bottom;" parent="jHsgVxrCVBSd2UUyfOYS-147" connectable="0" vertex="1">
          <mxGeometry x="1" relative="1" as="geometry">
            <mxPoint x="-2" y="16" as="offset" />
          </mxGeometry>
        </mxCell>
        <mxCell id="jHsgVxrCVBSd2UUyfOYS-149" value="" style="endArrow=none;html=1;rounded=0;" parent="1" source="xa8UJsieOF3sWng5uSHY-2" target="jHsgVxrCVBSd2UUyfOYS-146" edge="1">
          <mxGeometry relative="1" as="geometry">
            <mxPoint x="-1280" y="140" as="sourcePoint" />
            <mxPoint x="-1120" y="140" as="targetPoint" />
            <Array as="points">
              <mxPoint x="-1420" y="170" />
            </Array>
          </mxGeometry>
        </mxCell>
        <mxCell id="jHsgVxrCVBSd2UUyfOYS-150" value="1" style="resizable=0;html=1;whiteSpace=wrap;align=right;verticalAlign=bottom;" parent="jHsgVxrCVBSd2UUyfOYS-149" connectable="0" vertex="1">
          <mxGeometry x="1" relative="1" as="geometry" />
        </mxCell>
        <mxCell id="jHsgVxrCVBSd2UUyfOYS-151" value="RelatedTo" style="shape=associativeEntity;whiteSpace=wrap;html=1;align=center;" parent="1" vertex="1">
          <mxGeometry x="-1490" y="481" width="140" height="60" as="geometry" />
        </mxCell>
        <mxCell id="jHsgVxrCVBSd2UUyfOYS-152" value="" style="endArrow=none;html=1;rounded=0;" parent="1" source="t1DKoS5wMnab59zYMPA--1" target="jHsgVxrCVBSd2UUyfOYS-151" edge="1">
          <mxGeometry relative="1" as="geometry">
            <mxPoint x="-1540" y="590" as="sourcePoint" />
            <mxPoint x="-1380" y="590" as="targetPoint" />
            <Array as="points">
              <mxPoint x="-1420" y="610" />
            </Array>
          </mxGeometry>
        </mxCell>
        <mxCell id="jHsgVxrCVBSd2UUyfOYS-153" value="N" style="resizable=0;html=1;whiteSpace=wrap;align=right;verticalAlign=bottom;" parent="jHsgVxrCVBSd2UUyfOYS-152" connectable="0" vertex="1">
          <mxGeometry x="1" relative="1" as="geometry">
            <mxPoint x="-2" y="20" as="offset" />
          </mxGeometry>
        </mxCell>
        <mxCell id="jHsgVxrCVBSd2UUyfOYS-154" value="" style="endArrow=none;html=1;rounded=0;" parent="1" source="t1DKoS5wMnab59zYMPA--168" target="jHsgVxrCVBSd2UUyfOYS-151" edge="1">
          <mxGeometry relative="1" as="geometry">
            <mxPoint x="-1650" y="441" as="sourcePoint" />
            <mxPoint x="-1490" y="441" as="targetPoint" />
          </mxGeometry>
        </mxCell>
        <mxCell id="jHsgVxrCVBSd2UUyfOYS-155" value="M" style="resizable=0;html=1;whiteSpace=wrap;align=right;verticalAlign=bottom;" parent="jHsgVxrCVBSd2UUyfOYS-154" connectable="0" vertex="1">
          <mxGeometry x="1" relative="1" as="geometry" />
        </mxCell>
        <mxCell id="jHsgVxrCVBSd2UUyfOYS-156" value="Score" style="rounded=1;arcSize=10;whiteSpace=wrap;html=1;align=center;" parent="1" vertex="1">
          <mxGeometry x="-1980" y="368.5" width="110" height="40" as="geometry" />
        </mxCell>
        <mxCell id="jHsgVxrCVBSd2UUyfOYS-157" value="ToHave" style="shape=rhombus;perimeter=rhombusPerimeter;whiteSpace=wrap;html=1;align=center;" parent="1" vertex="1">
          <mxGeometry x="-1630" y="221" width="80" height="60" as="geometry" />
        </mxCell>
        <mxCell id="jHsgVxrCVBSd2UUyfOYS-158" value="Ask" style="shape=associativeEntity;whiteSpace=wrap;html=1;align=center;" parent="1" vertex="1">
          <mxGeometry x="-1660" y="481" width="140" height="60" as="geometry" />
        </mxCell>
        <mxCell id="jHsgVxrCVBSd2UUyfOYS-159" value="" style="endArrow=none;html=1;rounded=0;" parent="1" source="jHsgVxrCVBSd2UUyfOYS-37" target="jHsgVxrCVBSd2UUyfOYS-157" edge="1">
          <mxGeometry relative="1" as="geometry">
            <mxPoint x="-1680" y="331" as="sourcePoint" />
            <mxPoint x="-1520" y="331" as="targetPoint" />
          </mxGeometry>
        </mxCell>
        <mxCell id="jHsgVxrCVBSd2UUyfOYS-160" value="N" style="resizable=0;html=1;whiteSpace=wrap;align=right;verticalAlign=bottom;" parent="jHsgVxrCVBSd2UUyfOYS-159" connectable="0" vertex="1">
          <mxGeometry x="1" relative="1" as="geometry">
            <mxPoint x="-1" y="16" as="offset" />
          </mxGeometry>
        </mxCell>
        <mxCell id="jHsgVxrCVBSd2UUyfOYS-161" value="" style="endArrow=none;html=1;rounded=0;" parent="1" source="xa8UJsieOF3sWng5uSHY-2" target="jHsgVxrCVBSd2UUyfOYS-157" edge="1">
          <mxGeometry relative="1" as="geometry">
            <mxPoint x="-1570" y="170" as="sourcePoint" />
            <mxPoint x="-1410" y="170" as="targetPoint" />
            <Array as="points">
              <mxPoint x="-1590" y="170" />
            </Array>
          </mxGeometry>
        </mxCell>
        <mxCell id="jHsgVxrCVBSd2UUyfOYS-162" value="1" style="resizable=0;html=1;whiteSpace=wrap;align=right;verticalAlign=bottom;" parent="jHsgVxrCVBSd2UUyfOYS-161" connectable="0" vertex="1">
          <mxGeometry x="1" relative="1" as="geometry" />
        </mxCell>
        <mxCell id="jHsgVxrCVBSd2UUyfOYS-163" value="" style="endArrow=none;html=1;rounded=0;" parent="1" source="t1DKoS5wMnab59zYMPA--1" target="jHsgVxrCVBSd2UUyfOYS-158" edge="1">
          <mxGeometry relative="1" as="geometry">
            <mxPoint x="-1430" y="620" as="sourcePoint" />
            <mxPoint x="-1460" y="590" as="targetPoint" />
            <Array as="points">
              <mxPoint x="-1590" y="610" />
            </Array>
          </mxGeometry>
        </mxCell>
        <mxCell id="jHsgVxrCVBSd2UUyfOYS-164" value="1" style="resizable=0;html=1;whiteSpace=wrap;align=right;verticalAlign=bottom;" parent="jHsgVxrCVBSd2UUyfOYS-163" connectable="0" vertex="1">
          <mxGeometry x="1" relative="1" as="geometry">
            <mxPoint x="-1" y="19" as="offset" />
          </mxGeometry>
        </mxCell>
        <mxCell id="jHsgVxrCVBSd2UUyfOYS-165" value="" style="endArrow=none;html=1;rounded=0;" parent="1" source="jHsgVxrCVBSd2UUyfOYS-37" target="jHsgVxrCVBSd2UUyfOYS-158" edge="1">
          <mxGeometry relative="1" as="geometry">
            <mxPoint x="-1820" y="451" as="sourcePoint" />
            <mxPoint x="-1660" y="451" as="targetPoint" />
          </mxGeometry>
        </mxCell>
        <mxCell id="jHsgVxrCVBSd2UUyfOYS-166" value="N" style="resizable=0;html=1;whiteSpace=wrap;align=right;verticalAlign=bottom;" parent="jHsgVxrCVBSd2UUyfOYS-165" connectable="0" vertex="1">
          <mxGeometry x="1" relative="1" as="geometry" />
        </mxCell>
        <mxCell id="jHsgVxrCVBSd2UUyfOYS-167" value="Relationship" style="shape=rhombus;perimeter=rhombusPerimeter;whiteSpace=wrap;html=1;align=center;" parent="1" vertex="1">
          <mxGeometry x="-1310" y="480" width="120" height="60" as="geometry" />
        </mxCell>
        <mxCell id="jHsgVxrCVBSd2UUyfOYS-168" value="" style="endArrow=none;html=1;rounded=0;" parent="1" source="t1DKoS5wMnab59zYMPA--1" target="jHsgVxrCVBSd2UUyfOYS-167" edge="1">
          <mxGeometry relative="1" as="geometry">
            <mxPoint x="250" y="560" as="sourcePoint" />
            <mxPoint x="-1210.0034449063558" y="530.5717224531782" as="targetPoint" />
            <Array as="points">
              <mxPoint x="-1250" y="610" />
            </Array>
          </mxGeometry>
        </mxCell>
        <mxCell id="jHsgVxrCVBSd2UUyfOYS-169" value="1" style="resizable=0;html=1;whiteSpace=wrap;align=right;verticalAlign=bottom;" parent="jHsgVxrCVBSd2UUyfOYS-168" connectable="0" vertex="1">
          <mxGeometry x="1" relative="1" as="geometry">
            <mxPoint y="17" as="offset" />
          </mxGeometry>
        </mxCell>
        <mxCell id="jHsgVxrCVBSd2UUyfOYS-170" value="" style="endArrow=none;html=1;rounded=0;" parent="1" source="jHsgVxrCVBSd2UUyfOYS-131" target="jHsgVxrCVBSd2UUyfOYS-167" edge="1">
          <mxGeometry relative="1" as="geometry">
            <mxPoint x="-1370" y="450" as="sourcePoint" />
            <mxPoint x="-1210" y="450" as="targetPoint" />
          </mxGeometry>
        </mxCell>
        <mxCell id="jHsgVxrCVBSd2UUyfOYS-171" value="N" style="resizable=0;html=1;whiteSpace=wrap;align=right;verticalAlign=bottom;" parent="jHsgVxrCVBSd2UUyfOYS-170" connectable="0" vertex="1">
          <mxGeometry x="1" relative="1" as="geometry" />
        </mxCell>
        <mxCell id="jHsgVxrCVBSd2UUyfOYS-172" value="Answer" style="rounded=1;arcSize=10;whiteSpace=wrap;html=1;align=center;" parent="1" vertex="1">
          <mxGeometry x="-1850" y="367.5" width="100" height="40" as="geometry" />
        </mxCell>
        <mxCell id="jHsgVxrCVBSd2UUyfOYS-173" value="Have" style="shape=rhombus;perimeter=rhombusPerimeter;whiteSpace=wrap;html=1;align=center;" parent="1" vertex="1">
          <mxGeometry x="-1730" y="358.5" width="70" height="60" as="geometry" />
        </mxCell>
        <mxCell id="jHsgVxrCVBSd2UUyfOYS-174" value="" style="endArrow=none;html=1;rounded=0;" parent="1" source="jHsgVxrCVBSd2UUyfOYS-172" target="jHsgVxrCVBSd2UUyfOYS-173" edge="1">
          <mxGeometry relative="1" as="geometry">
            <mxPoint x="-1880" y="470" as="sourcePoint" />
            <mxPoint x="-1720" y="470" as="targetPoint" />
          </mxGeometry>
        </mxCell>
        <mxCell id="jHsgVxrCVBSd2UUyfOYS-175" value="N" style="resizable=0;html=1;whiteSpace=wrap;align=right;verticalAlign=bottom;" parent="jHsgVxrCVBSd2UUyfOYS-174" connectable="0" vertex="1">
          <mxGeometry x="1" relative="1" as="geometry" />
        </mxCell>
        <mxCell id="jHsgVxrCVBSd2UUyfOYS-176" value="" style="endArrow=none;html=1;rounded=0;" parent="1" source="jHsgVxrCVBSd2UUyfOYS-37" target="jHsgVxrCVBSd2UUyfOYS-173" edge="1">
          <mxGeometry relative="1" as="geometry">
            <mxPoint x="-1860" y="500" as="sourcePoint" />
            <mxPoint x="-1700" y="500" as="targetPoint" />
          </mxGeometry>
        </mxCell>
        <mxCell id="jHsgVxrCVBSd2UUyfOYS-177" value="1" style="resizable=0;html=1;whiteSpace=wrap;align=right;verticalAlign=bottom;" parent="jHsgVxrCVBSd2UUyfOYS-176" connectable="0" vertex="1">
          <mxGeometry x="1" relative="1" as="geometry">
            <mxPoint x="4" as="offset" />
          </mxGeometry>
        </mxCell>
        <mxCell id="jHsgVxrCVBSd2UUyfOYS-178" value="Put" style="shape=rhombus;perimeter=rhombusPerimeter;whiteSpace=wrap;html=1;align=center;" parent="1" vertex="1">
          <mxGeometry x="-1830" y="481" width="60" height="60" as="geometry" />
        </mxCell>
        <mxCell id="jHsgVxrCVBSd2UUyfOYS-179" value="" style="endArrow=none;html=1;rounded=0;" parent="1" source="jHsgVxrCVBSd2UUyfOYS-172" target="jHsgVxrCVBSd2UUyfOYS-178" edge="1">
          <mxGeometry relative="1" as="geometry">
            <mxPoint x="-2060" y="570" as="sourcePoint" />
            <mxPoint x="-1900" y="570" as="targetPoint" />
          </mxGeometry>
        </mxCell>
        <mxCell id="jHsgVxrCVBSd2UUyfOYS-180" value="N" style="resizable=0;html=1;whiteSpace=wrap;align=right;verticalAlign=bottom;" parent="jHsgVxrCVBSd2UUyfOYS-179" connectable="0" vertex="1">
          <mxGeometry x="1" relative="1" as="geometry" />
        </mxCell>
        <mxCell id="jHsgVxrCVBSd2UUyfOYS-181" value="" style="endArrow=none;html=1;rounded=0;" parent="1" source="t1DKoS5wMnab59zYMPA--1" target="jHsgVxrCVBSd2UUyfOYS-178" edge="1">
          <mxGeometry relative="1" as="geometry">
            <mxPoint x="230" y="560" as="sourcePoint" />
            <mxPoint x="-1910" y="520" as="targetPoint" />
            <Array as="points">
              <mxPoint x="-1800" y="610" />
            </Array>
          </mxGeometry>
        </mxCell>
        <mxCell id="jHsgVxrCVBSd2UUyfOYS-182" value="1" style="resizable=0;html=1;whiteSpace=wrap;align=right;verticalAlign=bottom;" parent="jHsgVxrCVBSd2UUyfOYS-181" connectable="0" vertex="1">
          <mxGeometry x="1" relative="1" as="geometry">
            <mxPoint y="16" as="offset" />
          </mxGeometry>
        </mxCell>
        <mxCell id="jHsgVxrCVBSd2UUyfOYS-183" value="Get" style="shape=rhombus;perimeter=rhombusPerimeter;whiteSpace=wrap;html=1;align=center;" parent="1" vertex="1">
          <mxGeometry x="-1957.5" y="221" width="65" height="60" as="geometry" />
        </mxCell>
        <mxCell id="jHsgVxrCVBSd2UUyfOYS-184" value="" style="endArrow=none;html=1;rounded=0;" parent="1" source="jHsgVxrCVBSd2UUyfOYS-156" target="jHsgVxrCVBSd2UUyfOYS-183" edge="1">
          <mxGeometry relative="1" as="geometry">
            <mxPoint x="-2260" y="380" as="sourcePoint" />
            <mxPoint x="-1925" y="260" as="targetPoint" />
          </mxGeometry>
        </mxCell>
        <mxCell id="jHsgVxrCVBSd2UUyfOYS-185" value="N" style="resizable=0;html=1;whiteSpace=wrap;align=right;verticalAlign=bottom;" parent="jHsgVxrCVBSd2UUyfOYS-184" connectable="0" vertex="1">
          <mxGeometry x="1" relative="1" as="geometry">
            <mxPoint y="16" as="offset" />
          </mxGeometry>
        </mxCell>
        <mxCell id="jHsgVxrCVBSd2UUyfOYS-186" value="" style="endArrow=none;html=1;rounded=0;" parent="1" source="xa8UJsieOF3sWng5uSHY-2" target="jHsgVxrCVBSd2UUyfOYS-183" edge="1">
          <mxGeometry relative="1" as="geometry">
            <mxPoint x="260" y="140" as="sourcePoint" />
            <mxPoint x="-2200" y="320" as="targetPoint" />
            <Array as="points">
              <mxPoint x="-1925" y="170" />
            </Array>
          </mxGeometry>
        </mxCell>
        <mxCell id="jHsgVxrCVBSd2UUyfOYS-187" value="1" style="resizable=0;html=1;whiteSpace=wrap;align=right;verticalAlign=bottom;" parent="jHsgVxrCVBSd2UUyfOYS-186" connectable="0" vertex="1">
          <mxGeometry x="1" relative="1" as="geometry" />
        </mxCell>
        <mxCell id="jHsgVxrCVBSd2UUyfOYS-190" value="Given" style="shape=rhombus;perimeter=rhombusPerimeter;whiteSpace=wrap;html=1;align=center;" parent="1" vertex="1">
          <mxGeometry x="-1985" y="470" width="120" height="60" as="geometry" />
        </mxCell>
        <mxCell id="jHsgVxrCVBSd2UUyfOYS-195" value="" style="endArrow=none;html=1;rounded=0;" parent="1" source="t1DKoS5wMnab59zYMPA--1" target="jHsgVxrCVBSd2UUyfOYS-190" edge="1">
          <mxGeometry relative="1" as="geometry">
            <mxPoint x="240" y="560" as="sourcePoint" />
            <mxPoint x="-1990" y="570" as="targetPoint" />
            <Array as="points">
              <mxPoint x="-1925" y="610" />
            </Array>
          </mxGeometry>
        </mxCell>
        <mxCell id="jHsgVxrCVBSd2UUyfOYS-196" value="1" style="resizable=0;html=1;whiteSpace=wrap;align=right;verticalAlign=bottom;" parent="jHsgVxrCVBSd2UUyfOYS-195" connectable="0" vertex="1">
          <mxGeometry x="1" relative="1" as="geometry">
            <mxPoint y="16" as="offset" />
          </mxGeometry>
        </mxCell>
        <mxCell id="jHsgVxrCVBSd2UUyfOYS-197" value="" style="endArrow=none;html=1;rounded=0;" parent="1" source="jHsgVxrCVBSd2UUyfOYS-156" target="jHsgVxrCVBSd2UUyfOYS-190" edge="1">
          <mxGeometry relative="1" as="geometry">
            <mxPoint x="-2170" y="470" as="sourcePoint" />
            <mxPoint x="-2010" y="470" as="targetPoint" />
          </mxGeometry>
        </mxCell>
        <mxCell id="jHsgVxrCVBSd2UUyfOYS-198" value="N" style="resizable=0;html=1;whiteSpace=wrap;align=right;verticalAlign=bottom;" parent="jHsgVxrCVBSd2UUyfOYS-197" connectable="0" vertex="1">
          <mxGeometry x="1" relative="1" as="geometry" />
        </mxCell>
        <mxCell id="jHsgVxrCVBSd2UUyfOYS-199" value="Like" style="shape=associativeEntity;whiteSpace=wrap;html=1;align=center;" parent="1" vertex="1">
          <mxGeometry x="-200" y="740" width="60" height="60" as="geometry" />
        </mxCell>
        <mxCell id="jHsgVxrCVBSd2UUyfOYS-200" value="" style="endArrow=none;html=1;rounded=0;" parent="1" source="t1DKoS5wMnab59zYMPA--1" target="jHsgVxrCVBSd2UUyfOYS-199" edge="1">
          <mxGeometry relative="1" as="geometry">
            <mxPoint x="-200" y="680" as="sourcePoint" />
            <mxPoint x="-40" y="680" as="targetPoint" />
            <Array as="points">
              <mxPoint x="-170" y="610" />
            </Array>
          </mxGeometry>
        </mxCell>
        <mxCell id="jHsgVxrCVBSd2UUyfOYS-201" value="M" style="resizable=0;html=1;whiteSpace=wrap;align=right;verticalAlign=bottom;" parent="jHsgVxrCVBSd2UUyfOYS-200" connectable="0" vertex="1">
          <mxGeometry x="1" relative="1" as="geometry" />
        </mxCell>
        <mxCell id="jHsgVxrCVBSd2UUyfOYS-202" value="" style="endArrow=none;html=1;rounded=0;" parent="1" source="t1DKoS5wMnab59zYMPA--198" target="jHsgVxrCVBSd2UUyfOYS-199" edge="1">
          <mxGeometry relative="1" as="geometry">
            <mxPoint x="-350" y="850" as="sourcePoint" />
            <mxPoint x="-190" y="850" as="targetPoint" />
            <Array as="points">
              <mxPoint x="-170" y="890" />
            </Array>
          </mxGeometry>
        </mxCell>
        <mxCell id="jHsgVxrCVBSd2UUyfOYS-203" value="N" style="resizable=0;html=1;whiteSpace=wrap;align=right;verticalAlign=bottom;" parent="jHsgVxrCVBSd2UUyfOYS-202" connectable="0" vertex="1">
          <mxGeometry x="1" relative="1" as="geometry">
            <mxPoint y="20" as="offset" />
          </mxGeometry>
        </mxCell>
        <mxCell id="jHsgVxrCVBSd2UUyfOYS-205" value="BeTeach" style="shape=associativeEntity;whiteSpace=wrap;html=1;align=center;" parent="1" vertex="1">
          <mxGeometry x="-280" y="740" width="70" height="60" as="geometry" />
        </mxCell>
        <mxCell id="jHsgVxrCVBSd2UUyfOYS-206" value="" style="endArrow=none;html=1;rounded=0;" parent="1" source="t1DKoS5wMnab59zYMPA--198" target="jHsgVxrCVBSd2UUyfOYS-205" edge="1">
          <mxGeometry relative="1" as="geometry">
            <mxPoint x="-370" y="900" as="sourcePoint" />
            <mxPoint x="-210" y="900" as="targetPoint" />
            <Array as="points">
              <mxPoint x="-245" y="890" />
            </Array>
          </mxGeometry>
        </mxCell>
        <mxCell id="jHsgVxrCVBSd2UUyfOYS-207" value="N" style="resizable=0;html=1;whiteSpace=wrap;align=right;verticalAlign=bottom;" parent="jHsgVxrCVBSd2UUyfOYS-206" connectable="0" vertex="1">
          <mxGeometry x="1" relative="1" as="geometry">
            <mxPoint y="18" as="offset" />
          </mxGeometry>
        </mxCell>
        <mxCell id="jHsgVxrCVBSd2UUyfOYS-208" value="" style="endArrow=none;html=1;rounded=0;" parent="1" source="t1DKoS5wMnab59zYMPA--1" target="jHsgVxrCVBSd2UUyfOYS-205" edge="1">
          <mxGeometry relative="1" as="geometry">
            <mxPoint x="-330" y="690" as="sourcePoint" />
            <mxPoint x="-170" y="690" as="targetPoint" />
            <Array as="points">
              <mxPoint x="-245" y="610" />
            </Array>
          </mxGeometry>
        </mxCell>
        <mxCell id="jHsgVxrCVBSd2UUyfOYS-209" value="M" style="resizable=0;html=1;whiteSpace=wrap;align=right;verticalAlign=bottom;" parent="jHsgVxrCVBSd2UUyfOYS-208" connectable="0" vertex="1">
          <mxGeometry x="1" relative="1" as="geometry" />
        </mxCell>
        <mxCell id="jHsgVxrCVBSd2UUyfOYS-210" value="Offer" style="shape=rhombus;perimeter=rhombusPerimeter;whiteSpace=wrap;html=1;align=center;" parent="1" vertex="1">
          <mxGeometry x="-45" y="740" width="120" height="60" as="geometry" />
        </mxCell>
        <mxCell id="jHsgVxrCVBSd2UUyfOYS-211" value="" style="endArrow=none;html=1;rounded=0;" parent="1" source="jHsgVxrCVBSd2UUyfOYS-59" target="jHsgVxrCVBSd2UUyfOYS-210" edge="1">
          <mxGeometry relative="1" as="geometry">
            <mxPoint x="20" y="-80" as="sourcePoint" />
            <mxPoint x="170" y="470" as="targetPoint" />
            <Array as="points">
              <mxPoint x="15" y="-90" />
            </Array>
          </mxGeometry>
        </mxCell>
        <mxCell id="jHsgVxrCVBSd2UUyfOYS-212" value="N" style="resizable=0;html=1;whiteSpace=wrap;align=right;verticalAlign=bottom;" parent="jHsgVxrCVBSd2UUyfOYS-211" connectable="0" vertex="1">
          <mxGeometry x="1" relative="1" as="geometry" />
        </mxCell>
        <mxCell id="jHsgVxrCVBSd2UUyfOYS-213" value="" style="endArrow=none;html=1;rounded=0;" parent="1" source="t1DKoS5wMnab59zYMPA--198" target="jHsgVxrCVBSd2UUyfOYS-210" edge="1">
          <mxGeometry relative="1" as="geometry">
            <mxPoint x="-160" y="850" as="sourcePoint" />
            <mxPoint y="850" as="targetPoint" />
            <Array as="points">
              <mxPoint x="15" y="890" />
            </Array>
          </mxGeometry>
        </mxCell>
        <mxCell id="jHsgVxrCVBSd2UUyfOYS-214" value="1" style="resizable=0;html=1;whiteSpace=wrap;align=right;verticalAlign=bottom;" parent="jHsgVxrCVBSd2UUyfOYS-213" connectable="0" vertex="1">
          <mxGeometry x="1" relative="1" as="geometry">
            <mxPoint y="17" as="offset" />
          </mxGeometry>
        </mxCell>
        <mxCell id="jHsgVxrCVBSd2UUyfOYS-223" value="DegreeStatus" style="ellipse;whiteSpace=wrap;html=1;align=center;" parent="1" vertex="1">
          <mxGeometry x="-630" y="320" width="100" height="40" as="geometry" />
        </mxCell>
        <mxCell id="jHsgVxrCVBSd2UUyfOYS-224" value="" style="endArrow=none;html=1;rounded=0;" parent="1" source="jHsgVxrCVBSd2UUyfOYS-223" target="t1DKoS5wMnab59zYMPA--209" edge="1">
          <mxGeometry relative="1" as="geometry">
            <mxPoint x="-630" y="420" as="sourcePoint" />
            <mxPoint x="-470" y="420" as="targetPoint" />
          </mxGeometry>
        </mxCell>
        <mxCell id="jHsgVxrCVBSd2UUyfOYS-256" value="ApplyTo" style="shape=rhombus;perimeter=rhombusPerimeter;whiteSpace=wrap;html=1;align=center;" parent="1" vertex="1">
          <mxGeometry x="-710" y="360" width="70" height="60" as="geometry" />
        </mxCell>
        <mxCell id="jHsgVxrCVBSd2UUyfOYS-257" value="" style="endArrow=none;html=1;rounded=0;" parent="1" source="jHsgVxrCVBSd2UUyfOYS-91" target="jHsgVxrCVBSd2UUyfOYS-256" edge="1">
          <mxGeometry relative="1" as="geometry">
            <mxPoint x="-790" y="240" as="sourcePoint" />
            <mxPoint x="-630" y="240" as="targetPoint" />
          </mxGeometry>
        </mxCell>
        <mxCell id="jHsgVxrCVBSd2UUyfOYS-258" value="N" style="resizable=0;html=1;whiteSpace=wrap;align=right;verticalAlign=bottom;" parent="jHsgVxrCVBSd2UUyfOYS-257" connectable="0" vertex="1">
          <mxGeometry x="1" relative="1" as="geometry" />
        </mxCell>
        <mxCell id="jHsgVxrCVBSd2UUyfOYS-261" value="" style="endArrow=none;html=1;rounded=0;" parent="1" source="t1DKoS5wMnab59zYMPA--25" target="jHsgVxrCVBSd2UUyfOYS-256" edge="1">
          <mxGeometry relative="1" as="geometry">
            <mxPoint x="-710" y="260" as="sourcePoint" />
            <mxPoint x="-550" y="260" as="targetPoint" />
            <Array as="points">
              <mxPoint x="1000" y="-280" />
              <mxPoint x="-680" y="-280" />
            </Array>
          </mxGeometry>
        </mxCell>
        <mxCell id="jHsgVxrCVBSd2UUyfOYS-262" value="1" style="resizable=0;html=1;whiteSpace=wrap;align=right;verticalAlign=bottom;" parent="jHsgVxrCVBSd2UUyfOYS-261" connectable="0" vertex="1">
          <mxGeometry x="1" relative="1" as="geometry" />
        </mxCell>
        <mxCell id="jHsgVxrCVBSd2UUyfOYS-263" value="Have" style="shape=rhombus;perimeter=rhombusPerimeter;whiteSpace=wrap;html=1;align=center;" parent="1" vertex="1">
          <mxGeometry x="280" y="361" width="120" height="60" as="geometry" />
        </mxCell>
        <mxCell id="jHsgVxrCVBSd2UUyfOYS-264" value="" style="endArrow=none;html=1;rounded=0;" parent="1" source="xa8UJsieOF3sWng5uSHY-1" target="jHsgVxrCVBSd2UUyfOYS-263" edge="1">
          <mxGeometry relative="1" as="geometry">
            <mxPoint x="280" y="480" as="sourcePoint" />
            <mxPoint x="440" y="480" as="targetPoint" />
            <Array as="points">
              <mxPoint x="733" y="391" />
            </Array>
          </mxGeometry>
        </mxCell>
        <mxCell id="jHsgVxrCVBSd2UUyfOYS-265" value="1" style="resizable=0;html=1;whiteSpace=wrap;align=right;verticalAlign=bottom;" parent="jHsgVxrCVBSd2UUyfOYS-264" connectable="0" vertex="1">
          <mxGeometry x="1" relative="1" as="geometry">
            <mxPoint x="4" y="-1" as="offset" />
          </mxGeometry>
        </mxCell>
        <mxCell id="jHsgVxrCVBSd2UUyfOYS-266" value="" style="endArrow=none;html=1;rounded=0;" parent="1" source="t1DKoS5wMnab59zYMPA--1" target="jHsgVxrCVBSd2UUyfOYS-263" edge="1">
          <mxGeometry relative="1" as="geometry">
            <mxPoint x="170" y="490" as="sourcePoint" />
            <mxPoint x="330" y="490" as="targetPoint" />
          </mxGeometry>
        </mxCell>
        <mxCell id="jHsgVxrCVBSd2UUyfOYS-267" value="N" style="resizable=0;html=1;whiteSpace=wrap;align=right;verticalAlign=bottom;" parent="jHsgVxrCVBSd2UUyfOYS-266" connectable="0" vertex="1">
          <mxGeometry x="1" relative="1" as="geometry">
            <mxPoint y="17" as="offset" />
          </mxGeometry>
        </mxCell>
        <mxCell id="jHsgVxrCVBSd2UUyfOYS-268" value="Subscriber" style="rounded=1;arcSize=10;whiteSpace=wrap;html=1;align=center;" parent="1" vertex="1">
          <mxGeometry x="943" y="670" width="100" height="40" as="geometry" />
        </mxCell>
        <mxCell id="jHsgVxrCVBSd2UUyfOYS-269" value="BeSubscribe" style="shape=rhombus;perimeter=rhombusPerimeter;whiteSpace=wrap;html=1;align=center;" parent="1" vertex="1">
          <mxGeometry x="796.35" y="660" width="102.71" height="60" as="geometry" />
        </mxCell>
        <mxCell id="jHsgVxrCVBSd2UUyfOYS-270" value="" style="endArrow=none;html=1;rounded=0;" parent="1" source="jHsgVxrCVBSd2UUyfOYS-268" target="jHsgVxrCVBSd2UUyfOYS-269" edge="1">
          <mxGeometry relative="1" as="geometry">
            <mxPoint x="740" y="750" as="sourcePoint" />
            <mxPoint x="900" y="750" as="targetPoint" />
          </mxGeometry>
        </mxCell>
        <mxCell id="jHsgVxrCVBSd2UUyfOYS-271" value="N" style="resizable=0;html=1;whiteSpace=wrap;align=right;verticalAlign=bottom;" parent="jHsgVxrCVBSd2UUyfOYS-270" connectable="0" vertex="1">
          <mxGeometry x="1" relative="1" as="geometry">
            <mxPoint x="7" as="offset" />
          </mxGeometry>
        </mxCell>
        <mxCell id="jHsgVxrCVBSd2UUyfOYS-272" value="" style="endArrow=none;html=1;rounded=0;" parent="1" source="xa8UJsieOF3sWng5uSHY-1" target="jHsgVxrCVBSd2UUyfOYS-269" edge="1">
          <mxGeometry relative="1" as="geometry">
            <mxPoint x="630" y="690" as="sourcePoint" />
            <mxPoint x="790" y="690" as="targetPoint" />
            <Array as="points">
              <mxPoint x="733" y="690" />
            </Array>
          </mxGeometry>
        </mxCell>
        <mxCell id="jHsgVxrCVBSd2UUyfOYS-273" value="1" style="resizable=0;html=1;whiteSpace=wrap;align=right;verticalAlign=bottom;" parent="jHsgVxrCVBSd2UUyfOYS-272" connectable="0" vertex="1">
          <mxGeometry x="1" relative="1" as="geometry" />
        </mxCell>
        <mxCell id="jHsgVxrCVBSd2UUyfOYS-274" value="News" style="rounded=1;arcSize=10;whiteSpace=wrap;html=1;align=center;" parent="1" vertex="1">
          <mxGeometry x="943.71" y="750" width="100" height="40" as="geometry" />
        </mxCell>
        <mxCell id="jHsgVxrCVBSd2UUyfOYS-275" value="Have" style="shape=rhombus;perimeter=rhombusPerimeter;whiteSpace=wrap;html=1;align=center;" parent="1" vertex="1">
          <mxGeometry x="812.71" y="740" width="72" height="60" as="geometry" />
        </mxCell>
        <mxCell id="jHsgVxrCVBSd2UUyfOYS-276" value="" style="endArrow=none;html=1;rounded=0;" parent="1" source="jHsgVxrCVBSd2UUyfOYS-274" target="jHsgVxrCVBSd2UUyfOYS-275" edge="1">
          <mxGeometry relative="1" as="geometry">
            <mxPoint x="731" y="720" as="sourcePoint" />
            <mxPoint x="891" y="720" as="targetPoint" />
          </mxGeometry>
        </mxCell>
        <mxCell id="jHsgVxrCVBSd2UUyfOYS-277" value="N" style="resizable=0;html=1;whiteSpace=wrap;align=right;verticalAlign=bottom;" parent="jHsgVxrCVBSd2UUyfOYS-276" connectable="0" vertex="1">
          <mxGeometry x="1" relative="1" as="geometry">
            <mxPoint x="9" as="offset" />
          </mxGeometry>
        </mxCell>
        <mxCell id="jHsgVxrCVBSd2UUyfOYS-278" value="" style="endArrow=none;html=1;rounded=0;" parent="1" source="xa8UJsieOF3sWng5uSHY-1" target="jHsgVxrCVBSd2UUyfOYS-275" edge="1">
          <mxGeometry relative="1" as="geometry">
            <mxPoint x="590" y="760" as="sourcePoint" />
            <mxPoint x="750" y="760" as="targetPoint" />
            <Array as="points">
              <mxPoint x="733" y="770" />
            </Array>
          </mxGeometry>
        </mxCell>
        <mxCell id="jHsgVxrCVBSd2UUyfOYS-279" value="1" style="resizable=0;html=1;whiteSpace=wrap;align=right;verticalAlign=bottom;" parent="jHsgVxrCVBSd2UUyfOYS-278" connectable="0" vertex="1">
          <mxGeometry x="1" relative="1" as="geometry" />
        </mxCell>
      </root>
    </mxGraphModel>
  </diagram>
</mxfile>
